<?xml version="1.0" encoding="UTF-8" standalone="no"?>
<!-- Created with Inkscape (http://www.inkscape.org/) -->

<svg
   xmlns:dc="http://purl.org/dc/elements/1.1/"
   xmlns:cc="http://creativecommons.org/ns#"
   xmlns:rdf="http://www.w3.org/1999/02/22-rdf-syntax-ns#"
   xmlns:svg="http://www.w3.org/2000/svg"
   xmlns="http://www.w3.org/2000/svg"
   xmlns:sodipodi="http://sodipodi.sourceforge.net/DTD/sodipodi-0.dtd"
   xmlns:inkscape="http://www.inkscape.org/namespaces/inkscape"
   width="168.03909mm"
   height="166.13773mm"
   viewBox="0 0 168.03909 166.13773"
   version="1.1"
   id="svg8"
   inkscape:version="0.92.5 (2060ec1f9f, 2020-04-08)"
   sodipodi:docname="logo.svg">
  <defs
     id="defs2" />
  <sodipodi:namedview
     id="base"
     pagecolor="#ffffff"
     bordercolor="#666666"
     borderopacity="1.0"
     inkscape:pageopacity="0.0"
     inkscape:pageshadow="2"
     inkscape:zoom="0.35"
     inkscape:cx="-172.49996"
     inkscape:cy="291.07291"
     inkscape:document-units="mm"
     inkscape:current-layer="layer1"
     showgrid="false"
     fit-margin-top="0"
     fit-margin-left="0"
     fit-margin-right="0"
     fit-margin-bottom="0"
     inkscape:window-width="1848"
     inkscape:window-height="1016"
     inkscape:window-x="1992"
     inkscape:window-y="27"
     inkscape:window-maximized="1" />
  <metadata
     id="metadata5">
    <rdf:RDF>
      <cc:Work
         rdf:about="">
        <dc:format>image/svg+xml</dc:format>
        <dc:type
           rdf:resource="http://purl.org/dc/dcmitype/StillImage" />
        <dc:title></dc:title>
      </cc:Work>
    </rdf:RDF>
  </metadata>
  <g
     inkscape:label="Layer 1"
     inkscape:groupmode="layer"
     id="layer1"
     transform="translate(-24.095972,-63.48841)">
    <g
       id="g21">
      <path
         style="fill:#d4e7ef;stroke-width:0.26458335"
         d="m 97.007261,229.22353 c -24.452529,-3.3387 -45.933421,-16.754 -59.609422,-37.22742 -2.73398,-4.09286 -7.061636,-12.54073 -8.634771,-16.85564 -1.39822,-3.83515 -2.619347,-8.1726 -3.65656,-12.98814 l -0.878245,-4.07749 v -11.64166 -11.64167 l 0.878245,-4.07749 c 1.743877,-8.09641 3.423763,-13.08375 6.670927,-19.80503 4.236248,-8.76858 8.876587,-15.446762 15.460895,-22.250667 6.797555,-7.024267 14.344139,-12.462895 23.556603,-16.97664 7.062666,-3.460429 12.800341,-5.413255 21.165239,-7.20362 l 3.970179,-0.84975 11.773959,-0.0049 c 12.8245,-0.0053 12.67721,-0.01794 20.00586,1.718408 19.77995,4.686395 37.8425,16.911629 49.44585,33.466315 7.66174,10.931134 12.46428,23.071364 14.44065,36.504164 0.67211,4.56812 0.72739,17.07393 0.0956,21.62893 -2.11599,15.25602 -8.08162,29.22523 -17.63137,41.28589 -2.68312,3.38859 -9.58485,10.29746 -12.91077,12.92413 -12.48467,9.85983 -27.06013,16.07144 -42.44325,18.08799 -3.99288,0.52342 -17.8243,0.51338 -21.699639,-0.0157 z M 131.0915,183.67328 c 6.3687,-41.45555 6.58872,-42.83021 6.9061,-43.14768 0.0978,-0.0978 11.4751,-0.23737 25.28295,-0.31013 l 25.10517,-0.13229 -19.51335,-31.22084 C 158.14003,91.690887 149.24786,77.641512 149.11199,77.641512 c -0.13587,0 -4.15278,6.250781 -8.92645,13.890625 -5.95749,9.534423 -8.83808,13.916403 -9.18534,13.972823 -0.28456,0.0462 -0.61275,-0.12741 -0.75009,-0.39687 -0.1343,-0.26349 -2.19154,-6.759625 -4.57163,-14.435849 l -4.32746,-13.95677 H 108.76966 96.188293 L 91.47853,91.862866 c -2.590369,8.331064 -4.824574,15.263784 -4.964899,15.406034 -0.166171,0.16845 -0.399619,0.1675 -0.66948,-0.003 -0.227889,-0.14375 -4.540626,-6.86102 -9.583865,-14.927274 -5.043237,-8.066251 -9.288583,-14.663231 -9.434103,-14.659954 -0.145521,0.0033 -9.041726,14.045571 -19.769345,31.205098 l -19.504762,31.19914 25.898913,0.13229 c 14.2444,0.0728 25.986363,0.21976 26.093247,0.32668 0.305104,0.30519 0.490781,1.46651 7.022822,43.92488 l 6.176992,40.15052 h 16.02864 16.02865 z m -23.0334,30.55937 c -1.39077,-1.5557 -12.524624,-17.72117 -12.524624,-18.18476 0,-0.57473 12.291584,-18.16203 13.009944,-18.61517 0.31822,-0.20072 0.55509,-0.18122 0.85864,0.0707 0.8729,0.72444 12.85433,18.02113 12.85433,18.55682 0,0.30877 -2.69616,4.38993 -5.99148,9.06925 -6.27453,8.90976 -6.87388,9.69847 -7.36997,9.69847 -0.16755,0 -0.54413,-0.2679 -0.83684,-0.59532 z M 53.492928,128.59683 c -0.205253,-0.12997 -0.30816,-0.46484 -0.232156,-0.75547 0.163528,-0.62534 15.60226,-23.63298 16.180211,-24.11263 0.221366,-0.18372 0.583099,-0.29444 0.803847,-0.24605 0.424016,0.093 15.890198,22.8443 16.390361,24.11084 0.234969,0.595 0.215194,0.78809 -0.101195,0.98813 -0.50483,0.3192 -32.537725,0.33391 -33.041068,0.0152 z m 74.650442,0.0663 c -0.1819,-0.0734 -0.33024,-0.33189 -0.32965,-0.57443 10e-4,-0.53265 15.86794,-24.10857 16.48859,-24.50007 0.33272,-0.20988 0.55633,-0.15046 0.9418,0.25027 0.78967,0.82093 15.9583,23.42238 16.1107,24.00515 0.0753,0.28783 -0.0285,0.62336 -0.23287,0.75275 -0.38012,0.2407 -32.38689,0.30507 -32.97857,0.0663 z"
         id="path35"
         inkscape:connector-curvature="0" />
      <path
         style="fill:#a6cedf;stroke-width:0.26458335"
         d="m 101.88348,229.49264 c -0.50933,-0.0571 -2.176202,-0.23557 -3.704171,-0.39655 -5.545637,-0.58426 -12.195429,-2.11234 -17.807319,-4.09199 -25.546813,-9.0119 -44.625801,-28.5786 -52.787587,-54.13699 -2.643351,-8.27757 -3.488431,-14.19675 -3.488431,-24.43393 0,-10.3596 0.854996,-16.24389 3.598055,-24.76268 8.624624,-26.78446 29.201522,-46.75853 56.771935,-55.108727 7.659093,-2.319694 13.44162,-3.076168 23.492878,-3.073355 11.16575,0.0031 16.63181,0.818595 26.07151,3.889549 30.96519,10.073694 52.87689,36.238253 57.45308,68.604173 0.65936,4.66349 0.65936,16.23858 0,20.90208 -2.17099,15.3547 -8.12181,29.26425 -17.68746,41.34294 -2.6825,3.38723 -9.32172,10.03347 -12.64582,12.65918 -12.38008,9.77903 -26.78705,15.97366 -42.10075,18.10224 -2.84133,0.39494 -14.96465,0.75093 -17.16592,0.50406 z m 29.58796,-46.54489 c 3.54031,-22.99114 6.56121,-41.95185 6.71313,-42.13489 0.21833,-0.26308 5.53596,-0.33281 25.37922,-0.33281 13.80667,0 25.10302,-0.0951 25.10302,-0.21133 0,-0.40024 -39.29098,-63.077133 -39.54856,-63.087789 -0.14187,-0.0059 -4.15481,6.22708 -8.91765,13.850998 -4.76284,7.623915 -8.83801,13.976511 -9.05593,14.116891 -0.21792,0.14037 -0.46584,0.18562 -0.55092,0.10054 -0.0851,-0.0851 -2.15027,-6.569775 -4.58932,-14.410434 l -4.43465,-14.255747 h -12.7984 -12.798407 l -4.567958,14.673214 c -2.512377,8.070271 -4.696566,14.955477 -4.853755,15.300467 -0.157186,0.34499 -0.408091,0.58649 -0.557559,0.53667 -0.149471,-0.0498 -4.466768,-6.80294 -9.593993,-15.006927 C 71.272482,83.882616 66.97255,77.157232 66.844307,77.141305 66.611481,77.112389 27.270972,139.8684 27.270972,140.26872 c 0,0.11623 11.653547,0.21133 25.896773,0.21133 20.694238,0 25.953134,0.0679 26.177336,0.33806 0.154313,0.18594 3.152815,19.02758 6.663341,41.87032 3.510527,22.84273 6.431559,41.68199 6.491182,41.86501 0.08584,0.26349 3.483822,0.31857 16.321666,0.26458 l 16.21325,-0.0682 z m -24.75889,29.05099 c -1.00688,-1.4271 -3.88451,-5.50253 -6.39472,-9.0565 -3.315837,-4.69459 -4.533905,-6.61929 -4.453908,-7.03777 0.188659,-0.9869 12.648258,-18.41903 13.101308,-18.32994 0.52963,0.10415 13.02658,17.8312 13.02658,18.47835 0,0.65756 -12.49318,18.35469 -13.03131,18.45941 -0.27172,0.0529 -1.05576,-0.82381 -2.24795,-2.51355 z M 53.554608,128.16183 c -0.102055,-0.26596 0.88737,-1.96074 2.742938,-4.69838 1.596416,-2.3553 5.254691,-7.77151 8.129495,-12.03604 3.585592,-5.31891 5.356734,-7.72832 5.640327,-7.67291 0.529958,0.10353 16.509379,23.75934 16.407351,24.28931 -0.06697,0.34788 -2.123872,0.40624 -16.418519,0.46587 -14.656631,0.0611 -16.358413,0.0253 -16.501592,-0.34785 z m 74.624642,0.0316 c -0.21617,-0.56333 15.9629,-24.54451 16.48832,-24.43954 0.52037,0.10396 16.50325,23.76011 16.41162,24.29073 -0.10215,0.59151 -32.67352,0.73884 -32.89994,0.14881 z"
         id="path33"
         inkscape:connector-curvature="0" />
      <path
         style="fill:#84bcd3;stroke-width:0.26458335"
         d="m 101.08973,229.21715 c -2.899208,-0.25755 -7.784882,-0.98377 -10.583338,-1.57314 -32.134558,-6.76769 -57.625035,-31.86269 -64.52485,-63.52377 -1.504116,-6.90192 -1.739421,-9.29459 -1.739421,-17.68706 0,-8.39883 0.234925,-10.78352 1.74489,-17.71203 5.343349,-24.51811 21.900874,-45.447309 44.807922,-56.638539 8.678051,-4.239659 17.467324,-6.867101 27.119793,-8.107119 3.674074,-0.471995 16.685884,-0.475555 20.108334,-0.0055 17.31234,2.377749 31.63137,8.623187 44.45,19.387473 15.53997,13.049484 25.39581,30.788035 28.6493,51.563015 0.76957,4.91409 0.82699,17.50481 0.10197,22.36061 -2.31716,15.51917 -7.99086,28.76305 -17.428,40.68149 -2.68311,3.38859 -9.58485,10.29746 -12.91077,12.92412 -12.28232,9.70004 -25.79464,15.50601 -41.53958,17.84874 -2.67351,0.3978 -15.41606,0.73403 -18.25625,0.48171 z m 24.07187,-4.66575 c 0.13642,-0.32742 3.10065,-19.19436 6.58718,-41.92654 3.48652,-22.73218 6.41548,-41.45476 6.50878,-41.60573 0.11525,-0.18648 8.2188,-0.2745 25.27384,-0.2745 16.5299,0 25.1603,-0.0908 25.26848,-0.26584 0.19196,-0.31059 -39.29553,-63.583718 -39.68828,-63.594845 -0.14552,-0.0041 -4.16379,6.230788 -8.92948,13.855355 -4.7657,7.624569 -8.78406,13.982 -8.92969,14.12764 -0.17533,0.17533 -0.35357,0.176 -0.5276,0.002 -0.14455,-0.14455 -2.16602,-6.389378 -4.49215,-13.877398 -2.32614,-7.487902 -4.34844,-13.882354 -4.49401,-14.209775 l -0.26468,-0.595313 h -12.69006 c -8.859704,0 -12.743764,0.0869 -12.867988,0.287896 -0.09786,0.158343 -2.278462,7.034203 -4.845783,15.279687 -2.805357,9.009983 -4.795939,14.991793 -4.988862,14.991793 -0.176554,0 -4.525664,-6.72703 -9.664685,-14.94896 -5.139024,-8.221927 -9.458728,-14.942543 -9.599346,-14.934703 -0.390747,0.02179 -39.867078,63.313043 -39.679363,63.616773 0.10824,0.17514 9.000661,0.26584 26.062237,0.26584 17.603307,0 25.952274,0.0879 26.067585,0.2745 0.09331,0.15097 3.022259,18.87355 6.508785,41.60573 3.486528,22.73218 6.450754,41.59912 6.587173,41.92654 l 0.248031,0.59531 h 16.150926 16.15093 z m -22.91079,-19.16082 c -3.465859,-4.9151 -6.300795,-9.11843 -6.299861,-9.34073 0.0025,-0.59973 12.525701,-18.26355 12.948371,-18.26355 0.32064,0 12.60172,17.09438 12.96935,18.05239 0.18016,0.46951 -12.31373,18.29343 -12.90341,18.40813 -0.28026,0.0545 -2.4371,-2.79032 -6.71445,-8.85624 z M 53.729307,127.95904 c 0,-0.19259 3.556378,-5.6397 7.903062,-12.10468 5.384062,-8.00792 8.050647,-11.75452 8.366094,-11.75452 0.315034,0 2.989985,3.74598 8.368816,11.7196 4.348179,6.44578 7.90578,11.89289 7.90578,12.10469 0,0.33289 -2.205649,0.38509 -16.271876,0.38509 -13.323058,0 -16.271876,-0.0635 -16.271876,-0.35018 z m 74.680523,-0.14594 c 0.22863,-0.87428 15.8574,-23.84555 16.22359,-23.84555 0.36645,0 15.95372,22.96448 16.18338,23.84272 0.1268,0.4849 -0.32952,0.49895 -16.20311,0.49895 -15.84068,0 -16.32968,-0.015 -16.20386,-0.49612 z"
         id="path31"
         inkscape:connector-curvature="0" />
      <path
         style="fill:#6fb0cb;stroke-width:0.26458335"
         d="M 101.61889,229.21774 C 88.143375,228.01403 75.474447,223.92578 64.180349,217.13636 58.491794,213.7167 52.839788,209.16475 47.639644,203.81499 41.330803,197.32464 37.132763,191.52137 33.308528,184.00401 29.654667,176.82156 27.7651,171.5968 26.091905,164.04967 c -1.584198,-7.1457 -1.84711,-9.65319 -1.84711,-17.61649 0,-7.97105 0.262464,-10.46895 1.854516,-17.64966 2.657211,-11.98495 7.808897,-23.01408 15.19328,-32.526975 7.771131,-10.011116 18.044581,-18.414133 29.237758,-23.914591 9.010312,-4.427771 17.828769,-7.070908 27.913544,-8.366462 3.615177,-0.464429 15.638387,-0.465647 19.049997,-0.0019 12.89133,1.752231 23.91026,5.533053 34.26355,11.756526 10.9214,6.564975 21.95634,17.619416 28.32161,28.371662 5.67928,9.59347 9.2091,19.61466 11.04186,31.3479 0.76356,4.88825 0.81917,16.48687 0.10213,21.30228 -2.34597,15.75496 -7.95574,29.05007 -17.1698,40.69233 -2.68198,3.38878 -10.37644,11.08789 -13.69684,13.70514 -10.25851,8.08608 -21.88585,13.55589 -34.79688,16.36937 -5.77703,1.25889 -9.24613,1.6284 -16.13542,1.71866 -3.63802,0.0477 -7.15036,0.0388 -7.80521,-0.0197 z m 30.09894,-45.98921 c 3.53553,-22.98225 6.55858,-41.94295 6.71788,-42.1349 0.23608,-0.28445 4.92956,-0.349 25.37705,-0.349 13.79807,0 25.14632,-0.0953 25.21831,-0.2118 0.21081,-0.34109 -39.49439,-63.685068 -39.91898,-63.685068 -0.21606,0 -4.1695,6.062495 -9.14454,14.022917 -4.82016,7.712603 -8.81253,14.072521 -8.87192,14.133161 -0.0594,0.0606 -0.18622,0.032 -0.28184,-0.0636 -0.0956,-0.0956 -1.64483,-4.90772 -3.4427,-10.693574 -1.79787,-5.78585 -3.80669,-12.216368 -4.46405,-14.29004 l -1.19519,-3.770312 H 108.76266 95.813479 l -0.971063,3.083246 c -0.534085,1.695785 -2.65774,8.504466 -4.719233,15.130403 -2.061493,6.625937 -3.873479,12.088927 -4.026638,12.139977 -0.153157,0.0511 -4.486255,-6.64269 -9.629101,-14.874986 -5.441448,-8.71027 -9.49214,-14.936326 -9.689109,-14.892497 -0.421275,0.09374 -40.051886,63.468703 -39.871623,63.760383 0.072,0.11649 11.76224,0.21363 25.978315,0.21586 14.216074,0.002 25.982365,0.0915 26.147317,0.19843 0.171447,0.11113 3.039044,17.98748 6.694665,41.73397 3.517114,22.84677 6.456323,41.74884 6.531573,42.0046 0.128911,0.43813 1.087716,0.46108 16.583908,0.39687 l 16.4471,-0.0681 z m -23.28794,30.60725 c -1.07911,-1.20466 -12.197522,-17.19631 -12.278998,-17.66094 -0.06174,-0.35206 1.597054,-2.92012 4.956178,-7.67292 8.22163,-11.63269 7.61688,-10.87317 8.19236,-10.28896 1.21981,1.2383 12.26415,17.22698 12.27903,17.77611 0.0104,0.38294 -2.28488,3.88291 -6.20123,9.45606 -3.41974,4.86646 -6.28856,8.84935 -6.37514,8.85088 -0.0866,0.002 -0.34408,-0.20557 -0.5722,-0.46023 z M 53.866843,128.05312 c -0.15008,-0.24283 14.726844,-22.58783 15.761743,-23.67399 0.269605,-0.28296 0.53811,-0.46155 0.596678,-0.39688 0.8871,0.97962 16.029097,23.87859 15.913474,24.06567 -0.218411,0.35339 -32.053527,0.35853 -32.271895,0.005 z m 74.620407,0.0128 c -0.12211,-0.19757 13.04514,-20.08431 15.40349,-23.26417 0.63538,-0.8567 0.67192,-0.86965 1.11969,-0.39687 1.01876,1.07569 15.88193,23.41473 15.73599,23.65087 -0.20675,0.33453 -32.0525,0.34457 -32.25917,0.0102 z"
         id="path29"
         inkscape:connector-curvature="0" />
      <path
         style="fill:#55a2c2;stroke-width:0.26458335"
         d="M 101.08973,228.95257 C 66.784209,225.90501 38.430836,203.4399 28.11357,171.13169 c -1.230492,-3.85324 -2.458813,-9.27759 -3.136414,-13.8506 -0.67108,-4.529 -0.67108,-17.16682 0,-21.69583 4.16119,-28.08315 20.763518,-50.997817 45.817777,-63.238066 8.678051,-4.239659 17.467324,-6.867101 27.119793,-8.107119 3.674074,-0.471995 16.685884,-0.475555 20.108334,-0.0055 17.31192,2.377691 31.62758,8.621509 44.45,19.387005 15.32568,12.867185 25.14533,30.61396 28.38471,51.2989 0.76958,4.91409 0.827,17.50481 0.10198,22.36061 -2.31721,15.51948 -7.99239,28.76653 -17.42836,40.68149 -2.6825,3.38723 -9.32173,10.03347 -12.64583,12.65917 -12.27827,9.69862 -25.79437,15.50634 -41.53958,17.84911 -2.67351,0.39779 -15.41606,0.73402 -18.25625,0.48171 z m 24.08725,-3.9504 c 0.19897,-0.23975 2.9452,-17.35482 6.63346,-41.34114 3.46166,-22.51261 6.36493,-41.31897 6.45172,-41.79192 l 0.1578,-0.85989 h 25.26402 c 21.8868,0 25.28381,-0.0516 25.41202,-0.38568 0.12957,-0.33763 -38.37931,-62.400504 -39.53646,-63.71897 -0.39794,-0.453423 -0.43267,-0.453423 -0.86646,0 -0.24854,0.259798 -4.23297,6.544546 -8.8543,13.966109 -4.62132,7.421562 -8.50138,13.604871 -8.62236,13.740691 -0.12098,0.13582 -0.29051,0.17639 -0.37674,0.0902 -0.0862,-0.0862 -2.10747,-6.430144 -4.49165,-14.097588 -2.38417,-7.667447 -4.47331,-14.107629 -4.64252,-14.311516 -0.44352,-0.534412 -25.425692,-0.554314 -25.868628,-0.02061 -0.159806,0.192553 -2.380695,7.062144 -4.935308,15.265757 -2.554613,8.203614 -4.687642,14.958557 -4.740061,15.010967 -0.15716,0.15716 -0.785622,-0.82214 -9.806483,-15.280987 -4.766493,-7.639844 -8.852903,-14.103186 -9.08091,-14.362984 -0.397942,-0.453423 -0.432687,-0.453423 -0.866691,0 -1.034325,1.080603 -39.704422,63.357331 -39.565646,63.718971 0.128257,0.33424 3.623662,0.38568 26.205772,0.38568 h 26.057774 l 0.159041,0.85989 c 0.08747,0.47295 2.998322,19.28844 6.468552,41.8122 3.470233,22.52377 6.454733,41.12729 6.632224,41.34115 0.277408,0.33425 2.579219,0.38884 16.397494,0.38884 14.17986,0 16.11482,-0.0482 16.41434,-0.40913 z m -22.71155,-19.68094 c -3.377438,-4.79214 -6.202368,-8.87344 -6.277621,-9.06955 -0.177019,-0.46131 12.210951,-18.0685 12.712541,-18.0685 0.53291,0 12.88514,17.5905 12.69682,18.08124 -0.32676,0.85152 -12.40809,17.7698 -12.6894,17.7698 -0.16585,0 -3.0649,-3.92085 -6.44234,-8.71299 z M 53.99389,127.82908 c 0,-0.50173 15.664282,-23.46465 16.006541,-23.46465 0.358762,0 16.008044,22.90279 16.008044,23.42784 0,0.15732 -6.02888,0.25237 -16.007292,0.25237 -8.804011,0 -16.007293,-0.097 -16.007293,-0.21556 z m 74.71149,-0.18992 c 0.41181,-1.07316 15.68559,-23.40219 15.96728,-23.34287 0.32297,0.068 15.94832,23.12424 15.94832,23.53279 0,0.11856 -7.21602,0.21556 -16.0356,0.21556 -14.29633,0 -16.01872,-0.044 -15.88,-0.40548 z"
         id="path27"
         inkscape:connector-curvature="0" />
      <path
         style="fill:#4499bc;stroke-width:0.26458335"
         d="m 101.4866,228.95288 c -12.865819,-1.01949 -25.95829,-5.2593 -37.306251,-12.0811 -9.855174,-5.92442 -19.564756,-15.26189 -26.19807,-25.19407 -2.354577,-3.52555 -6.132623,-10.75024 -7.748566,-14.81745 -2.410614,-6.06734 -4.23869,-12.96926 -5.255911,-19.84375 -0.363237,-2.4548 -0.469805,-4.85546 -0.469805,-10.58333 0,-8.11068 0.246624,-10.57854 1.743597,-17.44745 2.538322,-11.64716 7.98674,-23.30081 15.29611,-32.71694 13.695713,-17.643188 33.988062,-29.119781 56.631605,-32.028715 3.636691,-0.467192 16.156541,-0.468902 19.579171,-0.0027 12.5914,1.715194 23.66175,5.543463 33.99896,11.75727 10.89026,6.546256 21.70949,17.384784 28.05702,28.107065 5.66324,9.56638 9.26994,19.72062 11.04052,31.08332 0.76287,4.89577 0.81934,16.99658 0.10186,21.83145 -2.27935,15.36004 -8.01273,28.8608 -17.16849,40.42775 -2.68138,3.38753 -10.11301,10.82375 -13.43195,13.44025 -11.94629,9.41789 -25.75886,15.30138 -41.27501,17.58117 -2.68439,0.39442 -14.60134,0.72439 -17.59479,0.4872 z m 23.94467,-4.13689 c 0.13921,-0.32743 3.10997,-19.20494 6.60169,-41.95004 3.49172,-22.7451 6.41839,-41.46768 6.50371,-41.60573 0.0961,-0.15544 9.76308,-0.251 25.3916,-0.251 17.36225,0 25.29013,-0.0868 25.40842,-0.2782 0.0946,-0.15301 -8.80941,-14.64887 -19.7866,-32.21302 -14.57867,-23.326719 -20.08787,-31.934821 -20.43835,-31.934821 -0.34705,0 -2.88148,3.84287 -9.15865,13.886952 -4.77335,7.637825 -8.79522,13.925749 -8.93747,13.973169 -0.14225,0.0474 -0.36998,-0.30812 -0.50607,-0.79008 -0.74369,-2.63379 -8.35202,-26.878083 -8.55738,-27.268478 -0.2269,-0.431346 -1.12921,-0.463021 -13.18953,-0.463021 -12.061968,0 -12.962297,0.03162 -13.185185,0.463021 -0.131572,0.254661 -2.302415,7.100755 -4.824095,15.213541 -2.521681,8.112786 -4.65064,14.748147 -4.731023,14.745257 -0.08039,-0.003 -4.324229,-6.70017 -9.430764,-14.882817 -6.732503,-10.788077 -9.416654,-14.877544 -9.764978,-14.877544 -0.351208,0 -5.846736,8.586506 -20.438899,31.934821 -10.977193,17.56415 -19.881161,32.06001 -19.786597,32.21302 0.118348,0.19149 8.284857,0.2782 26.202166,0.2782 17.473669,0 26.08527,0.0891 26.197665,0.27091 0.09209,0.14901 3.021243,18.87158 6.509229,41.60573 3.487989,22.73415 6.453212,41.6027 6.589385,41.93013 l 0.247586,0.59531 h 16.41551 16.41552 z m -17.25854,-11.61595 c -3.17619,-4.28746 -11.687072,-16.60846 -11.760366,-17.0252 -0.0624,-0.35477 1.944716,-3.40675 6.090026,-9.26042 3.40071,-4.80218 6.28976,-8.72365 6.42012,-8.71436 0.13035,0.009 3.00852,3.93835 6.39592,8.73125 4.14233,5.86108 6.12782,8.88763 6.06397,9.24353 -0.0897,0.50019 -11.11341,16.38111 -12.09346,17.42207 -0.44486,0.47251 -0.48192,0.45934 -1.11621,-0.39687 z M 54.00903,127.8462 c 0.03071,-0.40251 15.787847,-23.48104 16.018124,-23.46078 0.240925,0.0212 15.944306,23.09267 15.968357,23.46078 0.0071,0.10914 -7.190317,0.19844 -15.994328,0.19844 -8.804011,0 -16.00048,-0.0893 -15.992153,-0.19844 z m 74.78658,0 c -0.12788,-0.23805 15.45073,-23.35568 15.78911,-23.43001 0.22194,-0.0488 15.9849,23.00547 16.0199,23.43001 0.0214,0.25947 -31.66963,0.25947 -31.80901,0 z"
         id="path25"
         inkscape:connector-curvature="0" />
      <path
         style="fill:#2b8cb4;stroke-width:0.26458335"
         d="M 101.08973,228.68799 C 80.446473,226.85412 62.066228,218.1669 47.906019,203.55127 36.958654,192.25182 29.743489,178.95445 26.510709,164.12024 c -1.504117,-6.90192 -1.739421,-9.29459 -1.739421,-17.68706 0,-5.98691 0.103375,-8.37058 0.470452,-10.84792 2.693801,-18.18 10.10708,-33.32715 22.629697,-46.238046 13.391854,-13.807079 30.586891,-22.343062 50.043289,-24.842555 3.729844,-0.47916 16.390514,-0.478155 20.108334,0.0016 15.88599,2.049945 29.97902,7.948491 42.20104,17.662974 3.61404,2.872561 10.41617,9.658402 13.29832,13.26647 9.076,11.361947 14.70588,24.383897 17.07077,39.484777 0.76958,4.91409 0.827,17.50481 0.10198,22.36061 -2.30887,15.4636 -7.81455,28.34392 -17.16308,40.15232 -2.68371,3.38988 -9.84805,10.56148 -13.17569,13.18905 -12.18277,9.61976 -25.30812,15.24744 -41.01042,17.58381 -2.67351,0.3978 -15.41606,0.73403 -18.25625,0.48172 z m 24.18427,-3.35791 c 0.3975,-0.29066 1.48131,-6.9249 6.797,-41.60573 3.47825,-22.69296 6.38609,-41.52781 6.46187,-41.85524 l 0.13777,-0.59531 h 24.97645 c 13.73704,0 25.16478,-0.0723 25.39496,-0.1606 0.23018,-0.0883 0.41851,-0.36215 0.41851,-0.60848 0,-0.24634 -8.96331,-14.78899 -19.91846,-32.31701 -15.28868,-24.461543 -20.03739,-31.869114 -20.4301,-31.869114 -0.38905,0 -2.59156,3.328036 -9.19289,13.890624 -4.7747,7.639844 -8.76733,13.92001 -8.87251,13.95593 -0.10519,0.0359 -2.15231,-6.25452 -4.54918,-13.978745 -3.04549,-9.81455 -4.49445,-14.117109 -4.81125,-14.286656 -0.74251,-0.397379 -25.43281,-0.313508 -25.940265,0.08812 -0.238869,0.189052 -2.370061,6.6212 -4.975025,15.015103 -2.506429,8.076406 -4.614275,14.780018 -4.684104,14.896908 -0.06983,0.1169 -4.316979,-6.491064 -9.438111,-14.684368 -7.088582,-11.34103 -9.433286,-14.896914 -9.822826,-14.896914 -0.392774,0 -5.140394,7.405844 -20.430149,31.869112 -10.955157,17.52802 -19.918468,32.07067 -19.918468,32.31701 0,0.24633 0.188331,0.52015 0.418514,0.60848 0.230184,0.0883 12.015103,0.1606 26.188712,0.1606 h 25.770196 l 0.137946,0.59531 c 0.07587,0.32743 2.990416,19.16718 6.476765,41.86614 5.226497,34.02871 6.419189,41.32959 6.796831,41.60572 0.681104,0.49804 32.326094,0.4876 33.007814,-0.0109 z m -19.61091,-15.96331 c -1.73763,-2.45338 -4.56019,-6.45377 -6.272351,-8.88976 l -3.113022,-4.42908 6.201153,-8.80009 c 3.41064,-4.84004 6.3083,-8.79079 6.43925,-8.77944 0.3691,0.032 12.5546,17.40454 12.43548,17.72892 -0.14896,0.40562 -11.51473,16.54126 -12.07197,17.1382 -0.44169,0.47316 -0.57976,0.32172 -3.61854,-3.96875 z M 54.352588,127.58161 c 2.04524,-3.23786 15.481714,-22.89219 15.650743,-22.89326 0.193839,-0.001 14.554331,20.96873 15.496401,22.62868 0.248994,0.43873 -0.564346,0.46302 -15.504854,0.46302 -8.672198,0 -15.711229,-0.0893 -15.64229,-0.19844 z m 82.246562,-11.32396 c 4.26248,-6.33732 7.85442,-11.54631 7.98209,-11.57552 0.17891,-0.0409 7.20696,10.20347 15.43763,22.50261 l 0.39839,0.59531 H 144.63323 128.8492 Z"
         id="path23"
         inkscape:connector-curvature="0" />
    </g>
  </g>
</svg>
