<?xml version="1.0" encoding="UTF-8" standalone="no"?>
<!-- Created with Inkscape (http://www.inkscape.org/) -->

<svg
   xmlns:dc="http://purl.org/dc/elements/1.1/"
   xmlns:cc="http://creativecommons.org/ns#"
   xmlns:rdf="http://www.w3.org/1999/02/22-rdf-syntax-ns#"
   xmlns:svg="http://www.w3.org/2000/svg"
   xmlns="http://www.w3.org/2000/svg"
   xmlns:sodipodi="http://sodipodi.sourceforge.net/DTD/sodipodi-0.dtd"
   xmlns:inkscape="http://www.inkscape.org/namespaces/inkscape"
   width="67.764778mm"
   height="67.73333mm"
   viewBox="0 0 67.764778 67.73333"
   version="1.1"
   id="svg8"
   inkscape:version="0.92.5 (2060ec1f9f, 2020-04-08)"
   sodipodi:docname="email.svg">
  <defs
     id="defs2" />
  <sodipodi:namedview
     id="base"
     pagecolor="#ffffff"
     bordercolor="#666666"
     borderopacity="1.0"
     inkscape:pageopacity="0.0"
     inkscape:pageshadow="2"
     inkscape:zoom="1.4"
     inkscape:cx="139.26592"
     inkscape:cy="109.71273"
     inkscape:document-units="mm"
     inkscape:current-layer="layer1"
     showgrid="false"
     inkscape:window-width="1920"
     inkscape:window-height="1043"
     inkscape:window-x="0"
     inkscape:window-y="0"
     inkscape:window-maximized="1"
     fit-margin-top="0"
     fit-margin-left="0"
     fit-margin-right="0"
     fit-margin-bottom="0" />
  <metadata
     id="metadata5">
    <rdf:RDF>
      <cc:Work
         rdf:about="">
        <dc:format>image/svg+xml</dc:format>
        <dc:type
           rdf:resource="http://purl.org/dc/dcmitype/StillImage" />
        <dc:title></dc:title>
      </cc:Work>
    </rdf:RDF>
  </metadata>
  <g
     inkscape:label="Layer 1"
     inkscape:groupmode="layer"
     id="layer1"
     transform="translate(-28.84594,-26.520241)">
    <g
       id="g21"
       transform="translate(-35.529765,-27.970238)">
      <path
         style="fill:#fbfcfd;stroke-width:0.26458332"
         d="M 64.40715,88.357144 79.904174,69.987503 98.273815,54.490479 114.18661,67.341669 132.14048,88.357144 111.72977,106.5378 98.273815,122.22381 75.746436,108.23869 Z"
         id="path37"
         inkscape:connector-curvature="0"
         sodipodi:nodetypes="ccccccccc" />
      <path
         style="fill:#adcbe8;stroke-width:0.26458332"
         d="M 92.32069,121.89846 C 80.568343,120.33956 69.323629,110.53913 65.770306,98.758245 63.957227,92.747058 63.906917,84.256232 65.649104,78.302978 69.205693,66.149711 80.48818,56.350238 92.731297,54.780574 c 2.900116,-0.371818 8.184923,-0.371818 11.085033,0 13.96267,1.790123 26.22915,14.057395 28.03225,28.034052 0.411,3.185869 0.36258,8.386484 -0.10938,11.748648 -0.93199,6.639236 -4.03258,12.565466 -9.36318,17.896076 -5.33061,5.3306 -11.25684,8.43119 -17.89608,9.36318 -3.10869,0.43638 -9.157107,0.47415 -12.15925,0.0759 z M 90.153793,98.543602 c 2.056561,-4.455057 2.951921,-6.666658 2.742467,-6.774087 -0.477047,-0.244679 -14.442275,-1.407819 -14.631463,-1.218629 -0.09146,0.09146 0.816012,1.86771 2.016615,3.947216 1.200602,2.079503 3.135084,5.427429 4.298849,7.439828 1.163764,2.01241 2.206868,3.56022 2.318008,3.43959 0.11114,-0.12063 1.576126,-3.1959 3.255524,-6.833918 z m 13.658777,-0.983475 c 15.13993,-8.724386 13.64777,-7.831738 13.4396,-8.039906 -0.13252,-0.132517 -12.82132,-1.395199 -14.26929,-1.419961 -0.24767,-0.0042 -0.8135,0.520174 -1.25739,1.165349 -1.13426,1.64859 -2.136651,2.272324 -4.189855,2.607117 -0.97645,0.159218 -1.812734,0.314079 -1.858409,0.344133 -0.118893,0.07823 -6.134661,13.067891 -6.134661,13.246381 0,0.29534 1.098511,-0.31304 14.270005,-7.903113 z m -5.438306,-8.246586 c 0.482462,-0.201586 1.123701,-0.767133 1.424977,-1.256771 0.787579,-1.279993 8.022349,-16.962953 7.937959,-17.207284 -0.0556,-0.160907 -29.096566,16.415146 -29.545356,16.863935 -0.06301,0.06301 -0.06495,0.159689 -0.0043,0.214849 0.119796,0.108982 16.672757,1.661943 18.308845,1.717691 0.550375,0.01876 1.395425,-0.130834 1.877888,-0.33242 z m 20.272466,-2.451224 c 0,-0.406868 -8.54406,-14.9204 -8.69575,-14.771202 -0.32723,0.321854 -6.33557,13.489971 -6.21229,13.615113 0.15182,0.15412 11.56459,1.246711 13.51898,1.294228 0.76398,0.01857 1.38906,-0.04359 1.38906,-0.138139 z"
         id="path35"
         inkscape:connector-curvature="0" />
      <path
         style="fill:#8eb5dd;stroke-width:0.26458332"
         d="m 92.478575,121.79736 c -6.784576,-1.13697 -13.091102,-4.43619 -18.149944,-9.49503 -6.533079,-6.53308 -9.919353,-14.7075 -9.919353,-23.945186 0,-9.237685 3.386274,-17.412104 9.919353,-23.945184 6.53308,-6.533079 14.707499,-9.919353 23.945184,-9.919353 9.237685,0 17.412105,3.386274 23.945185,9.919353 6.51415,6.514153 9.91714,14.705943 9.92042,23.880779 0.003,9.428681 -3.29049,17.428131 -9.89618,24.033821 -5.19823,5.19823 -11.51582,8.46441 -18.36086,9.49252 -3.276,0.49204 -8.39621,0.48229 -11.403805,-0.0217 z M 103.45009,98.013424 c 7.68987,-4.438938 14.0982,-8.187422 14.24074,-8.329964 0.14254,-0.142538 0.20359,-0.314743 0.13566,-0.382672 -0.0929,-0.09285 -14.28023,-1.472811 -15.14198,-1.472811 -0.0884,0 -0.63103,0.636699 -1.20591,1.414886 -1.19438,1.616781 -2.278675,2.225678 -4.445316,2.49632 l -1.521698,0.190079 -3.228546,6.879045 c -1.775701,3.783473 -3.237794,6.968343 -3.249094,7.077483 -0.0113,0.10914 0.08185,0.19844 0.20701,0.19844 0.125157,0 6.519267,-3.63186 14.209134,-8.070806 z m -13.201678,0.860907 c 1.805054,-3.9019 3.114295,-7.049127 2.987792,-7.182225 -0.219416,-0.230857 -12.228807,-1.452177 -14.48048,-1.472624 l -1.129551,-0.01026 0.600384,1.146765 c 1.772407,3.385386 8.311885,14.456523 8.541096,14.459803 0.147287,0.002 1.713629,-3.12155 3.480759,-6.941464 z m 7.821925,-9.20679 c 0.590854,-0.164095 1.245867,-0.614924 1.631609,-1.123003 0.477234,-0.628589 7.342444,-14.978367 8.559334,-17.89086 0.114,-0.272847 0.009,-0.334739 -0.3916,-0.230069 -0.99957,0.261394 -30.229729,17.267185 -30.142636,17.53666 0.04757,0.147193 4.067062,0.63047 9.05937,1.089245 10.828406,0.995084 10.074857,0.953812 11.283923,0.618027 z m 20.832993,-2.699459 c -0.0113,-0.468297 -8.53472,-15.092877 -8.85556,-15.194481 -0.36829,-0.11663 -6.74696,13.745744 -6.46377,14.047319 0.22419,0.238744 11.24346,1.381106 13.93825,1.444971 0.95617,0.02265 1.38657,-0.07015 1.38108,-0.297809 z"
         id="path33"
         inkscape:connector-curvature="0" />
      <path
         style="fill:#619bd5;stroke-width:0.26458332"
         d="m 93.90819,121.97957 c -7.996456,-1.29473 -14.736961,-4.75065 -19.989777,-10.24893 -4.419064,-4.62557 -6.914317,-9.21357 -8.610944,-15.832871 -0.678965,-2.648945 -0.745984,-3.326392 -0.745984,-7.540625 0,-4.209796 0.06757,-4.894469 0.744132,-7.540625 1.78325,-6.974563 4.765745,-12.201404 9.594704,-16.814777 4.625571,-4.419064 9.213571,-6.914317 15.832869,-8.610944 2.648945,-0.678965 3.326392,-0.745984 7.540625,-0.745984 4.209795,0 4.894465,0.06757 7.540625,0.744132 6.97456,1.78325 12.2014,4.765745 16.81478,9.594704 4.42085,4.627445 6.91935,9.222551 8.60879,15.832869 0.66895,2.617386 0.74483,3.363283 0.75367,7.408333 0.007,3.424039 -0.10729,5.034854 -0.48071,6.746875 -2.93053,13.435743 -12.77321,23.429573 -26.09341,26.494093 -2.50373,0.57603 -9.26166,0.87768 -11.50937,0.51375 z m 9.46505,-23.742813 c 7.74557,-4.461629 14.25437,-8.268795 14.46399,-8.460367 0.20962,-0.191571 0.29324,-0.4362 0.18582,-0.543618 -0.20345,-0.203454 -12.3454,-1.368967 -14.49889,-1.391759 -1.18274,-0.01251 -1.27046,0.04056 -2.19587,1.328661 -1.12473,1.56555 -2.589332,2.348013 -4.411142,2.35666 -0.673404,0.0032 -1.33786,0.154638 -1.476565,0.336539 -0.448228,0.587814 -6.427184,13.707297 -6.427184,14.103027 0,0.2106 0.06232,0.38291 0.138482,0.38291 0.07617,0 6.475775,-3.65042 14.221359,-8.112053 z m -13.064739,0.82107 c 1.786378,-3.864519 3.18201,-7.198269 3.101399,-7.408333 -0.08061,-0.210063 -0.312176,-0.381933 -0.514596,-0.381933 -0.202416,0 -3.629201,-0.29717 -7.615073,-0.660377 -3.985872,-0.363206 -7.336337,-0.660863 -7.445477,-0.661458 -0.534068,-0.0029 0.123577,1.311696 4.060138,8.116067 4.335173,7.493377 4.663846,8.022437 4.983849,8.022437 0.09999,0 1.643382,-3.16188 3.42976,-7.026403 z m 8.465752,-9.535175 c 0.392906,-0.232095 0.970627,-0.797642 1.283817,-1.256771 0.7091,-1.039503 8.26991,-17.321551 8.26991,-17.809079 0,-0.195749 -0.10821,-0.355907 -0.24046,-0.355907 -0.33903,0 -29.963696,17.126182 -30.428251,17.590737 -0.329695,0.329695 -0.330209,0.400868 -0.0038,0.524262 0.581116,0.219667 16.263916,1.661424 18.460838,1.697145 1.351368,0.02199 2.161215,-0.09697 2.657928,-0.390387 z M 119.1008,87.040196 c -0.16391,-0.62676 -8.60653,-15.289907 -8.91232,-15.47889 -0.11717,-0.07242 -0.33192,0.01585 -0.47723,0.196148 -0.63304,0.78551 -6.43687,13.767704 -6.30667,14.106984 0.0794,0.206823 0.47545,0.384996 0.8802,0.395944 0.40475,0.01095 3.59341,0.292957 7.08591,0.626689 8.36029,0.798883 7.89657,0.789697 7.73011,0.153125 z"
         id="path31"
         inkscape:connector-curvature="0" />
      <path
         style="fill:#3285d9;stroke-width:0.26458332"
         d="m 94.70194,121.94935 c -5.621104,-0.84959 -11.012312,-2.90082 -15.478124,-5.88908 -2.547663,-1.70475 -6.948381,-6.10546 -8.653126,-8.65313 -4.310738,-6.4422 -6.700804,-15.0473 -5.970898,-21.497392 0.970278,-8.57422 4.224066,-15.512321 9.969186,-21.257441 5.74512,-5.74512 12.683221,-8.998908 21.257441,-9.969186 6.450091,-0.729906 15.055201,1.66016 21.497391,5.970898 2.54767,1.704745 6.94839,6.105463 8.65313,8.653126 4.33818,6.483206 6.67347,14.937853 5.96806,21.606591 -1.40337,13.266804 -9.25735,23.884054 -21.21757,28.682504 -5.40003,2.1665 -11.415821,3.04983 -16.02549,2.35311 z m -5.075835,-15.63536 c 1.313892,-0.68068 28.644005,-16.457616 28.875105,-16.668809 0.15851,-0.144857 0.15564,-0.325422 -0.008,-0.488842 -0.22872,-0.228719 -13.44484,-1.592945 -15.43187,-1.592945 -0.61917,0 -0.95319,0.255884 -1.71111,1.310846 -1.25012,1.740078 -1.966099,2.164279 -4.010008,2.375832 -0.94247,0.09755 -1.825273,0.290218 -1.961782,0.428154 -0.422844,0.427262 -6.629845,13.972144 -6.629845,14.467614 0,0.54866 0.104244,0.56864 0.87729,0.16815 z m 0.863408,-7.193954 c 1.807513,-3.903064 3.286386,-7.264312 3.286386,-7.469438 0,-0.205126 -0.267891,-0.428681 -0.595313,-0.496792 -1.218493,-0.253469 -15.409767,-1.424581 -15.628043,-1.28968 -0.410741,0.253852 -0.02065,1.021075 4.474214,8.799745 2.811598,4.865659 4.584476,7.674939 4.813622,7.627599 0.199512,-0.0412 1.841623,-3.26837 3.649134,-7.171434 z m 8.185164,-9.327311 c 0.48274,-0.229073 1.166866,-0.854151 1.520273,-1.389062 1.12854,-1.708105 8.44391,-17.800485 8.28276,-18.220434 -0.0958,-0.249731 -0.32335,-0.336908 -0.60111,-0.230322 -0.77224,0.296337 -29.819416,17.11678 -30.312867,17.553374 -0.258202,0.228449 -0.427513,0.543116 -0.376246,0.699259 0.05639,0.171733 3.586903,0.611169 8.936125,1.112261 10.5181,0.985287 11.404848,1.018842 12.551065,0.474924 z m 20.664733,-2.347584 c 0.20292,-0.528785 -8.92498,-16.319653 -9.3795,-16.226137 -0.56137,0.115501 -7.28825,14.876723 -6.85745,15.047731 0.0717,0.02844 14.843,1.473684 15.61872,1.528151 0.25923,0.0182 0.53743,-0.139184 0.61823,-0.349745 z"
         id="path29"
         inkscape:connector-curvature="0" />
      <path
         style="fill:#1d78d5;stroke-width:0.26458332"
         d="m 94.834232,121.97773 c -1.254506,-0.16969 -1.327489,-0.20825 -0.529167,-0.27961 0.909291,-0.0813 0.911686,-0.0846 0.132292,-0.18238 -11.345739,-1.42387 -21.078091,-8.30465 -26.130386,-18.47422 -1.582188,-3.184722 -3.03706,-8.173698 -3.140901,-10.770617 l -0.03483,-0.871051 -0.175051,0.926042 c -0.138611,0.733274 -0.21811,0.416586 -0.381908,-1.521354 -0.232915,-2.755691 0.08003,-8.013152 0.381908,-6.416146 l 0.175051,0.926042 0.03483,-0.871051 c 0.05557,-1.38975 0.810878,-4.780344 1.544691,-6.934157 3.237931,-9.503648 11.21149,-17.477207 20.715138,-20.715138 2.153813,-0.733813 5.544407,-1.48912 6.934157,-1.544691 l 0.871051,-0.03483 -0.926042,-0.175051 c -0.733274,-0.138611 -0.416586,-0.21811 1.521354,-0.381908 2.755691,-0.232915 8.013151,0.08002 6.416141,0.381908 l -0.92604,0.175051 0.87105,0.03483 c 1.38975,0.05557 4.78035,0.810878 6.93416,1.544691 9.50365,3.237931 17.47721,11.21149 20.71514,20.715138 0.73381,2.153813 1.48912,5.544407 1.54469,6.934157 l 0.0348,0.871051 0.1765,-0.926042 c 0.1378,-0.722945 0.22241,-0.363027 0.3858,1.641089 0.21275,2.609551 0.0386,6.04879 -0.37915,7.487036 -0.1268,0.436562 -0.48071,1.859272 -0.78647,3.161575 -1.9636,8.363496 -7.74541,16.103736 -15.39324,20.607276 -2.731,1.60818 -6.03679,2.96284 -8.81164,3.61086 -1.30969,0.30585 -2.74643,0.66998 -3.19277,0.80918 -1.08555,0.33854 -6.760191,0.51862 -8.581188,0.27232 z m 7.474478,-0.45832 c -0.1819,-0.0734 -0.47956,-0.0734 -0.66146,0 -0.1819,0.0734 -0.0331,0.13346 0.33073,0.13346 0.3638,0 0.51263,-0.0601 0.33073,-0.13346 z M 87.095971,106.28266 c 0.445896,-0.55853 6.679928,-14.196693 6.679928,-14.613647 0,-0.526444 -0.16482,-0.552876 -8.202083,-1.315321 -3.856302,-0.365823 -7.309115,-0.696809 -7.672917,-0.735528 -0.489921,-0.05214 -0.680425,0.06683 -0.734598,0.458772 -0.05643,0.408257 6.495008,12.224964 8.83811,15.941144 0.425114,0.67424 0.709493,0.74316 1.09156,0.26458 z m 16.644949,-8.033285 c 7.97992,-4.60021 14.62205,-8.469741 14.76029,-8.598958 0.15821,-0.147876 0.14889,-0.337402 -0.0251,-0.511437 -0.24508,-0.245089 -13.19006,-1.571533 -15.36526,-1.574446 -0.72309,-0.0011 -1.00922,0.212294 -1.89678,1.413746 -1.224691,1.6578 -2.384489,2.289281 -4.204566,2.289281 -0.813435,0 -1.435627,0.143319 -1.627886,0.37498 -0.540819,0.651645 -6.875159,14.528099 -6.735188,14.754579 0.07352,0.11895 0.235351,0.21627 0.359635,0.21627 0.124284,0 6.754992,-3.76381 14.734905,-8.364015 z m -5.086383,-8.44709 c 0.471662,-0.223819 1.112578,-0.751867 1.424263,-1.173435 0.7354,-0.994688 8.55803,-17.704543 8.60797,-18.387406 0.0209,-0.2865 -0.14051,-0.556842 -0.35879,-0.60076 -0.6548,-0.131745 -31.330562,17.710901 -31.441735,18.288179 -0.121766,0.63228 0.429177,0.991452 1.279238,0.833959 0.363802,-0.0674 4.233333,0.215212 8.598958,0.628031 9.537821,0.901903 10.766876,0.944432 11.890096,0.411432 z m 20.688593,-2.366828 c 0.0871,-0.226978 -1.44234,-3.156148 -3.62643,-6.945313 -2.07738,-3.604035 -4.11674,-7.2374 -4.53192,-8.074145 -0.77784,-1.567672 -1.014,-1.759 -1.46963,-1.190625 -0.14581,0.181901 -1.7082,3.467825 -3.47197,7.302054 -2.80579,6.099443 -3.41995,7.613741 -3.14072,7.743876 0.0744,0.03466 14.88401,1.483622 15.61872,1.528125 0.25923,0.01569 0.53911,-0.148087 0.62195,-0.363972 z"
         id="path27"
         inkscape:connector-curvature="0" />
      <path
         style="fill:#2c6fb2;stroke-width:0.26458332"
         d="m 94.909135,114.18826 c -5.040375,-4.83979 -7.911535,-7.77913 -7.77139,-7.95593 0.419773,-0.52957 6.638154,-14.171959 6.638154,-14.563317 0,-0.53067 -0.261094,-0.571532 -7.672917,-1.200796 -3.56526,-0.302691 -6.737049,-0.602826 -7.04842,-0.666967 -0.505043,-0.104039 -1.052062,-0.840152 -0.806679,-1.085535 0.05217,-0.05217 4.268272,0.278297 9.369114,0.73437 5.108458,0.456753 9.703011,0.748789 10.228786,0.650152 1.743321,-0.327048 2.418367,-1.393102 6.604947,-10.430742 2.15978,-4.662339 4.08141,-8.688334 4.2703,-8.946657 0.29205,-0.399395 0.4076,-0.416429 0.77221,-0.11383 0.26869,0.222994 0.34066,0.466215 0.19278,0.651471 -0.40754,0.510534 -6.64971,14.219589 -6.64971,14.604094 0,0.500417 0.31209,0.548646 7.54063,1.165273 3.4925,0.297926 6.8569,0.606814 7.47645,0.686414 0.86415,0.111029 1.16284,0.04989 1.28274,-0.26257 0.0948,-0.246952 -1.47231,-3.23664 -3.98048,-7.593995 -2.27523,-3.952681 -4.10262,-7.271234 -4.06087,-7.374563 0.0874,-0.216201 20.39832,19.168416 20.54722,19.610093 0.0541,0.16053 -0.0284,0.724588 -0.18342,1.253458 -0.155,0.528873 -0.53373,2.027108 -0.84163,3.329411 -1.98197,8.383176 -7.75151,16.105036 -15.39712,20.607276 -2.73381,1.60984 -6.03893,2.96361 -8.81164,3.60923 -1.30969,0.30495 -2.67918,0.64777 -3.04333,0.76183 -0.60337,0.18897 -1.37089,-0.47325 -8.655725,-7.46817 z m 8.831785,-15.938885 c 7.97992,-4.60021 14.62205,-8.469741 14.76029,-8.598958 0.15821,-0.147876 0.14889,-0.337402 -0.0251,-0.511437 -0.24508,-0.245089 -13.19006,-1.571533 -15.36526,-1.574446 -0.72309,-0.0011 -1.00922,0.212294 -1.89678,1.413746 -1.224691,1.6578 -2.384489,2.289281 -4.204566,2.289281 -0.813435,0 -1.435627,0.143319 -1.627886,0.37498 -0.540819,0.651645 -6.875159,14.528099 -6.735188,14.754579 0.07352,0.11895 0.235351,0.21627 0.359635,0.21627 0.124284,0 6.754992,-3.76381 14.734905,-8.364015 z"
         id="path25"
         inkscape:connector-curvature="0" />
      <path
         style="fill:#1761ab;stroke-width:0.26458332"
         d="m 94.966523,114.27519 c -4.074583,-3.93298 -7.441666,-7.29856 -7.482408,-7.47907 -0.04074,-0.1805 1.417774,-3.56047 3.241146,-7.511042 1.82337,-3.95057 3.315221,-7.42792 3.315221,-7.727439 0,-0.704374 0.09046,-0.688925 -7.9375,-1.355505 -6.074261,-0.50436 -8.243977,-0.832956 -7.883062,-1.193872 0.06755,-0.06755 4.296235,0.250333 9.397077,0.706406 5.538689,0.495221 9.684948,0.752179 10.293871,0.637942 1.86151,-0.349221 2.536202,-1.411179 6.953232,-10.944326 2.2422,-4.839293 4.16874,-8.855577 4.28119,-8.925076 0.64389,-0.397945 0.10001,0.989061 -2.9626,7.555187 -1.86655,4.001822 -3.39761,7.538537 -3.40234,7.859365 -0.007,0.45444 0.18137,0.615479 0.85128,0.728861 1.78811,0.302641 15.6224,1.448882 15.84281,1.312659 0.54376,-0.336064 0.0214,-1.449351 -3.723,-7.934392 -2.1745,-3.766089 -3.90348,-6.897579 -3.8422,-6.958866 0.0613,-0.06129 2.40597,2.090803 5.2104,4.782423 2.80443,2.69162 7.16127,6.846305 9.68187,9.23263 l 4.58291,4.338777 -0.14959,1.719792 c -0.22156,2.547215 -1.34009,6.399582 -2.67838,9.224736 -3.45056,7.2842 -9.01325,12.84581 -16.30142,16.29825 -2.47033,1.17021 -6.3722,2.35472 -8.68955,2.63793 l -1.19062,0.1455 z M 104.11,98.345164 c 14.29067,-8.242643 15.46687,-9.016287 14.55995,-9.576797 -0.27039,-0.167105 -14.15635,-1.466786 -15.68938,-1.468474 -0.87925,-0.0011 -1.06817,0.130175 -1.80885,1.255688 -1.19529,1.816299 -1.89248,2.241241 -3.993034,2.433778 -0.994788,0.09118 -1.911895,0.280376 -2.038014,0.420431 -0.371337,0.412372 -6.921023,14.70659 -6.921023,15.10464 0,0.19995 0.246735,0.36355 0.5483,0.36355 0.301565,0 7.205486,-3.83977 15.342051,-8.532816 z m 27.55289,-5.886979 c 0.005,-0.436562 0.0647,-0.583125 0.13178,-0.325694 0.0671,0.257432 0.0627,0.614619 -0.01,0.79375 -0.0725,0.179131 -0.12736,-0.03149 -0.12197,-0.468056 z"
         id="path23"
         inkscape:connector-curvature="0" />
    </g>
  </g>
</svg>
