<?xml version="1.0" encoding="UTF-8" standalone="no"?>
<!-- Created with Inkscape (http://www.inkscape.org/) -->

<svg
   xmlns:dc="http://purl.org/dc/elements/1.1/"
   xmlns:cc="http://creativecommons.org/ns#"
   xmlns:rdf="http://www.w3.org/1999/02/22-rdf-syntax-ns#"
   xmlns:svg="http://www.w3.org/2000/svg"
   xmlns="http://www.w3.org/2000/svg"
   xmlns:sodipodi="http://sodipodi.sourceforge.net/DTD/sodipodi-0.dtd"
   xmlns:inkscape="http://www.inkscape.org/namespaces/inkscape"
   width="135.46666mm"
   height="135.46666mm"
   viewBox="0 0 135.46666 135.46666"
   version="1.1"
   id="svg99"
   inkscape:version="0.92.5 (2060ec1f9f, 2020-04-08)"
   sodipodi:docname="facebook.svg">
  <defs
     id="defs93" />
  <sodipodi:namedview
     id="base"
     pagecolor="#ffffff"
     bordercolor="#666666"
     borderopacity="1.0"
     inkscape:pageopacity="0.0"
     inkscape:pageshadow="2"
     inkscape:zoom="1.979899"
     inkscape:cx="369.36042"
     inkscape:cy="178.72563"
     inkscape:document-units="mm"
     inkscape:current-layer="layer1"
     showgrid="false"
     fit-margin-top="0"
     fit-margin-left="0"
     fit-margin-right="0"
     fit-margin-bottom="0"
     inkscape:window-width="1920"
     inkscape:window-height="1043"
     inkscape:window-x="0"
     inkscape:window-y="0"
     inkscape:window-maximized="1" />
  <metadata
     id="metadata96">
    <rdf:RDF>
      <cc:Work
         rdf:about="">
        <dc:format>image/svg+xml</dc:format>
        <dc:type
           rdf:resource="http://purl.org/dc/dcmitype/StillImage" />
        <dc:title />
      </cc:Work>
    </rdf:RDF>
  </metadata>
  <g
     inkscape:label="Layer 1"
     inkscape:groupmode="layer"
     id="layer1"
     transform="translate(-28.272619,-20.62381)">
    <g
       id="g112"
       transform="translate(0.75595714,0.75595234)">
      <path
         style="fill:#fdfdfe;stroke-width:0.26458332"
         d="m 58.549244,117.93218 6.740204,-50.937107 16.375659,-7.477029 20.293963,0.396393 0.26459,16.404162 -1.29611,29.354771 -13.447034,44.49625 -19.042298,-6.06452 z"
         id="path128"
         inkscape:connector-curvature="0"
         sodipodi:nodetypes="ccccccccc" />
      <path
         style="fill:#9fa9cb;stroke-width:0.26458332"
         d="m 91.031687,150.52186 c -1.353396,-0.11085 -2.753053,-0.27492 -3.110349,-0.36459 l -0.649626,-0.16305 0.06764,-22.41802 0.06764,-22.41802 5.990936,-0.071 c 4.3526,-0.0516 6.062914,-0.16015 6.254136,-0.39687 0.413056,-0.51135 1.995626,-14.04278 1.679366,-14.359039 -0.0671,-0.0671 -3.114445,-0.122008 -6.77187,-0.122008 -4.819335,0 -6.737259,-0.0874 -6.96736,-0.3175 -0.427799,-0.427799 -0.446121,-10.579435 -0.02058,-11.407705 0.384082,-0.747591 1.541391,-1.993657 2.216629,-2.386627 0.334401,-0.194611 2.574197,-0.35665 6.085416,-0.44025 l 5.556255,-0.132292 V 67.984224 60.4436 l -8.863547,0.01111 c -8.206215,0.01029 -9.034565,0.05391 -11.16966,0.588217 -5.055539,1.265139 -8.594444,3.897875 -10.536692,7.838667 -1.635109,3.317607 -1.831686,4.737779 -1.83697,13.271062 -0.0034,5.414222 -0.09047,7.507438 -0.322093,7.739063 -0.219969,0.219969 -1.592969,0.3175 -4.469609,0.3175 -3.542104,0 -4.175704,0.06149 -4.312708,0.418515 -0.08833,0.230185 -0.160602,3.430293 -0.160602,7.111354 0,5.222762 0.07676,6.756542 0.349454,6.982862 0.212164,0.17608 2.005237,0.31874 4.564062,0.36313 l 4.214609,0.0731 0.06786,19.38837 c 0.05987,17.10263 0.02069,19.40648 -0.332303,19.54193 -0.825714,0.31686 -8.205295,-4.30945 -12.227528,-7.66552 C 43.69808,125.82959 35.747901,110.99077 34.071112,94.757474 33.625383,90.442295 33.888191,82.17083 34.598122,78.170682 c 3.612923,-20.357231 16.323196,-37.249359 34.55262,-45.92091 9.416684,-4.479421 18.163827,-6.300224 28.811137,-5.997322 15.626351,0.44455 29.877501,6.41833 41.116011,17.234964 5.49741,5.291048 9.2869,10.464293 12.73875,17.390351 4.39248,8.81345 6.36639,17.374472 6.36639,27.611667 0,7.361512 -0.86415,12.852998 -3.07915,19.567418 -8.94997,27.13035 -35.60515,44.79655 -64.072193,42.46501 z"
         id="path126"
         inkscape:connector-curvature="0" />
      <path
         style="fill:#7886b6;stroke-width:0.26458332"
         d="m 92.273702,150.24523 c -1.979975,-0.0992 -3.855886,-0.26158 -4.168695,-0.36087 l -0.56874,-0.18051 0.06765,-22.14054 0.06765,-22.14055 5.990937,-0.071 c 4.352014,-0.0516 6.063173,-0.16018 6.254995,-0.39687 0.444501,-0.54849 2.081881,-14.252287 1.764311,-14.766129 -0.0856,-0.138462 -2.997031,-0.244081 -6.728177,-0.244081 -3.617531,0 -6.76566,-0.07227 -6.995842,-0.1606 -0.361823,-0.138845 -0.418515,-0.859184 -0.418515,-5.317825 0,-5.896131 0.159237,-6.529096 1.939168,-7.708207 1.04676,-0.69342 1.146461,-0.705979 6.63938,-0.836284 l 5.576656,-0.132292 v -7.805208 -7.805208 h -8.99583 c -7.776786,0 -9.282667,0.06573 -11.112499,0.485027 -6.448414,1.477629 -10.793314,5.517919 -12.309623,11.446625 -0.460927,1.802215 -0.522668,2.941164 -0.522668,9.641816 0,5.972913 -0.07475,7.660232 -0.349454,7.888216 -0.212164,0.176083 -2.005237,0.318741 -4.564062,0.363127 l -4.214609,0.0731 -0.07046,7.243733 c -0.04911,5.04825 0.01924,7.35181 0.225502,7.60034 0.220932,0.26621 1.379077,0.37501 4.568375,0.42918 l 4.272414,0.0726 0.0679,18.99149 c 0.05944,16.62473 0.01876,19.01034 -0.326416,19.14279 -0.476512,0.18286 -3.078914,-1.20921 -6.504887,-3.47958 -12.964739,-8.59164 -22.384217,-21.98671 -26.022179,-37.00514 -1.289487,-5.323324 -1.597549,-8.099415 -1.603581,-14.450592 -0.006,-6.303673 0.225619,-8.6576 1.3537,-13.758332 1.877368,-8.488712 5.962642,-17.238736 11.259886,-24.116934 2.528069,-3.282569 7.129362,-7.983119 10.398495,-10.622811 8.184337,-6.60852 17.665876,-10.877313 28.442707,-12.805521 3.37295,-0.603494 4.587657,-0.689182 10.054166,-0.709246 6.990123,-0.02566 9.812783,0.300954 15.742703,1.821585 4.599,1.179335 7.17234,2.147205 11.90625,4.478099 6.15062,3.028456 11.32561,6.679145 16.02333,11.303621 14.80897,14.57808 21.29687,35.342057 17.44241,55.822911 -2.79431,14.84767 -11.36293,28.71208 -23.29605,37.69405 -9.76491,7.34997 -21.98366,11.94392 -33.05614,12.4283 -1.673493,0.0732 -3.399899,0.16348 -3.836462,0.20062 -0.436562,0.0371 -2.41373,-0.0137 -4.393705,-0.11284 z"
         id="path124"
         inkscape:connector-curvature="0" />
      <path
         style="fill:#465aa0;stroke-width:0.26458332"
         d="m 91.423234,149.98791 c -1.574607,-0.11283 -3.033123,-0.27045 -3.241146,-0.35028 -0.323705,-0.12421 -0.378222,-3.31168 -0.378222,-22.11386 v -21.96871 h 5.934226 c 4.681629,0 6.010999,-0.0768 6.297938,-0.36372 0.6264,-0.6264 2.22807,-14.58747 1.74088,-15.174501 -0.20065,-0.241773 -2.05515,-0.346508 -7.056471,-0.39852 l -6.784281,-0.07055 -0.07182,-5.251249 c -0.08167,-5.970703 0.03703,-6.414415 2.013005,-7.524974 0.978027,-0.549683 1.362599,-0.585235 6.330675,-0.585235 4.157532,0 5.353802,-0.07761 5.590422,-0.36272 0.21356,-0.257325 0.28063,-2.621383 0.23083,-8.135937 l -0.0702,-7.773217 -8.069784,-0.07843 c -10.597464,-0.102995 -13.105642,0.242316 -17.237277,2.373119 -3.534701,1.822947 -6.17275,5.052565 -7.526832,9.214685 -0.398254,1.224127 -0.496835,2.778676 -0.620805,9.789583 l -0.147376,8.334375 -4.354224,0.07296 c -3.077276,0.05156 -4.414573,0.167955 -4.560009,0.396875 -0.35723,0.562282 -0.259924,14.856416 0.103608,15.219956 0.220973,0.22097 1.628659,0.3175 4.630209,0.3175 h 4.312708 v 18.9177 c 0,14.1175 -0.07747,18.91771 -0.305303,18.91771 -0.425775,0 -3.37634,-1.66247 -6.000091,-3.3807 -6.358297,-4.1639 -12.653983,-10.34504 -17.037621,-16.72763 -5.319616,-7.74538 -8.534759,-15.90491 -10.164884,-25.796872 -0.676925,-4.107733 -0.681746,-13.852787 -0.009,-18.114525 3.819376,-24.193777 20.8119,-43.576116 44.096841,-50.298581 1.529813,-0.441664 4.507884,-1.113514 6.617936,-1.493001 3.389256,-0.609548 4.561233,-0.692117 10.054166,-0.708348 6.990248,-0.02066 9.832768,0.308729 15.742708,1.824237 4.60779,1.18159 7.17974,2.149951 11.90625,4.482799 17.71419,8.743132 30.06481,25.300341 33.46309,44.860545 0.73188,4.212621 1.00343,12.145435 0.56202,16.418141 -1.93391,18.719405 -11.76629,35.091545 -27.27823,45.421635 -8.96877,5.9727 -18.9022,9.32037 -30.03021,10.12049 -4.049756,0.29118 -4.477452,0.29065 -8.68376,-0.0108 z"
         id="path122"
         inkscape:connector-curvature="0" />
      <path
         style="fill:#405393;stroke-width:0.26458332"
         d="m 93.095532,149.82969 c -0.654843,-0.0456 -2.053828,-0.15402 -3.108854,-0.24093 l -1.918229,-0.15802 V 127.4929 105.55506 h 6.069801 c 3.789468,0 6.13167,-0.1001 6.23448,-0.26645 0.23801,-0.38512 1.38958,-9.437468 1.61026,-12.658037 0.15146,-2.210403 0.11624,-2.783212 -0.18274,-2.972511 -0.20369,-0.128966 -3.376671,-0.23631 -7.051072,-0.238538 l -6.680729,-0.0041 V 84.11445 c 0,-5.85557 0.06091,-6.109197 1.712251,-7.129782 0.791075,-0.488911 1.310108,-0.533826 6.168694,-0.533826 2.917717,0 5.493276,-0.07227 5.723456,-0.1606 0.36824,-0.141306 0.41852,-1.077023 0.41852,-7.789592 0,-4.200549 0.10635,-7.694726 0.23666,-7.77526 0.37731,-0.233193 50.56333,50.34062 50.56333,50.95404 0,0.87881 -3.35422,7.31755 -5.47145,10.50299 -6.20664,9.33805 -14.28263,16.43658 -24.29417,21.35379 -7.57539,3.72068 -14.50084,5.58537 -23.01875,6.19781 -3.591533,0.25824 -4.498662,0.27061 -7.011458,0.0956 z M 64.044731,109.70956 c -2.076939,-2.08066 -3.692665,-3.86659 -3.590501,-3.96875 0.10216,-0.10217 1.89231,-0.18575 3.97811,-0.18575 h 3.79236 v 3.96875 c 0,2.18281 -0.09084,3.96875 -0.201858,3.96875 -0.111025,0 -1.901174,-1.70235 -3.978111,-3.783 z"
         id="path120"
         inkscape:connector-curvature="0" />
      <path
         style="fill:#3e5190;stroke-width:0.26458332"
         d="m 88.068449,119.52908 v -13.70944 h 6.076109 c 5.516493,0 6.098802,-0.0427 6.322552,-0.46302 0.47047,-0.88388 2.02143,-14.758584 1.73362,-15.508619 -0.14782,-0.385196 -0.93013,-0.432528 -7.14913,-0.432528 h -6.983151 v -5.271365 -5.271367 l 0.692976,-0.823553 c 1.27504,-1.515303 1.669476,-1.598297 7.595864,-1.598297 4.181191,0 5.470981,-0.07986 5.697481,-0.352785 0.19489,-0.234826 0.31631,-2.85315 0.36313,-7.830793 l 0.0703,-7.478009 25.00312,25.326199 c 13.75172,13.929407 25.03829,25.527487 25.08126,25.773517 0.1635,0.93601 -5.0292,10.33048 -5.99206,10.84064 -0.23984,0.12708 -1.6267,0.43067 -3.08191,0.67464 -1.4552,0.24397 -3.12208,0.54693 -3.70416,0.67326 -0.58208,0.12632 -2.24896,0.42724 -3.70417,0.6687 -1.45521,0.24145 -3.47927,0.59843 -4.49791,0.79328 -1.01865,0.19486 -2.98318,0.54997 -4.36563,0.78915 -1.38245,0.23917 -3.40651,0.59463 -4.49792,0.78991 -1.0914,0.19527 -3.11546,0.5516 -4.49791,0.79183 -1.38245,0.24024 -3.40651,0.6015 -4.49792,0.80281 -1.0914,0.20131 -3.05594,0.55628 -4.36562,0.78883 -1.30969,0.23255 -2.97657,0.53683 -3.70417,0.67616 -0.7276,0.13934 -2.69214,0.48146 -4.36562,0.76028 -1.673494,0.27882 -4.471463,0.76161 -6.217713,1.07287 -1.74625,0.31126 -4.038203,0.7147 -5.093229,0.89653 l -1.918229,0.33061 z m -23.812498,-10.13757 -3.564522,-3.57187 h 3.766634 3.766637 v 3.57187 c 0,1.96454 -0.09095,3.57188 -0.202112,3.57188 -0.111165,0 -1.806149,-1.60734 -3.766637,-3.57188 z"
         id="path118"
         inkscape:connector-curvature="0" />
      <path
         style="fill:#3e508e;stroke-width:0.26458332"
         d="m 88.068449,111.67414 v -5.8545 h 6.053021 c 4.522174,0 6.12123,-0.0836 6.32274,-0.33073 0.45,-0.55177 2.10913,-15.275422 1.78112,-15.806155 -0.1045,-0.169084 -2.735433,-0.267282 -7.161038,-0.267282 h -6.995843 v -5.271365 -5.271367 l 0.692976,-0.823553 c 1.27504,-1.515303 1.669476,-1.598297 7.595864,-1.598297 4.181191,0 5.470981,-0.07986 5.697481,-0.352785 0.19471,-0.234612 0.31635,-2.834878 0.36313,-7.762708 l 0.0703,-7.409926 18.91771,19.163405 c 20.89637,21.167773 26.31784,26.753193 26.14026,26.930773 -0.10561,0.10561 -2.04423,0.47673 -6.16422,1.18004 -1.89601,0.32365 -7.31097,1.29012 -9.78958,1.74724 -1.16417,0.21471 -2.77151,0.49632 -3.57188,0.62581 -0.80036,0.12949 -3.12208,0.5404 -5.15937,0.91315 -4.25928,0.77928 -4.28234,0.78344 -8.33438,1.50421 -1.67349,0.29767 -4.35239,0.76191 -5.95312,1.03162 -3.41551,0.5755 -7.67093,1.33329 -14.948961,2.66205 -1.673489,0.30553 -3.608255,0.62061 -4.299479,0.70018 l -1.256771,0.14468 z m -23.689311,-2.42404 -3.422843,-3.43046 h 3.638394 3.638396 l -0.173059,3.37344 c -0.09518,1.85539 -0.192182,3.39909 -0.215553,3.43045 -0.02336,0.0314 -1.582772,-1.48668 -3.465335,-3.37343 z"
         id="path116"
         inkscape:connector-curvature="0" />
      <path
         style="fill:#3c4d8a;stroke-width:0.26458332"
         d="m 102.09137,89.403586 c -0.25624,-0.170702 -2.811221,-0.201605 -7.2099,-0.08721 l -6.813021,0.177184 v -5.079267 c 0,-5.623933 0.11321,-6.119064 1.649654,-7.214939 0.825653,-0.588901 1.12151,-0.622027 6.684721,-0.748463 l 5.820836,-0.132292 0.13229,-7.646408 0.13229,-7.646407 10.07238,10.29224 c 9.79245,10.006206 13.34324,13.724051 13.34324,13.970976 0,0.06611 -0.62507,0.238535 -1.38906,0.383162 -1.28203,0.242691 -2.34978,0.43195 -8.6651,1.535895 -1.23693,0.21622 -3.0824,0.551524 -4.10104,0.745117 -1.01865,0.193593 -2.74506,0.49289 -3.83646,0.665104 -1.91916,0.302824 -4.20973,0.734113 -5.02708,0.94655 -0.21829,0.05673 -0.57547,-0.01582 -0.79375,-0.161242 z"
         id="path114"
         inkscape:connector-curvature="0" />
    </g>
  </g>
</svg>
