<?xml version="1.0" encoding="UTF-8" standalone="no"?>
<!-- Created with Inkscape (http://www.inkscape.org/) -->

<svg
   xmlns:dc="http://purl.org/dc/elements/1.1/"
   xmlns:cc="http://creativecommons.org/ns#"
   xmlns:rdf="http://www.w3.org/1999/02/22-rdf-syntax-ns#"
   xmlns:svg="http://www.w3.org/2000/svg"
   xmlns="http://www.w3.org/2000/svg"
   xmlns:sodipodi="http://sodipodi.sourceforge.net/DTD/sodipodi-0.dtd"
   xmlns:inkscape="http://www.inkscape.org/namespaces/inkscape"
   width="57.414589mm"
   height="57.414585mm"
   viewBox="0 0 57.414589 57.414585"
   version="1.1"
   id="svg155"
   inkscape:version="0.92.5 (2060ec1f9f, 2020-04-08)"
   sodipodi:docname="linkedin.svg">
  <defs
     id="defs149" />
  <sodipodi:namedview
     id="base"
     pagecolor="#ffffff"
     bordercolor="#666666"
     borderopacity="1.0"
     inkscape:pageopacity="0.0"
     inkscape:pageshadow="2"
     inkscape:zoom="3.959798"
     inkscape:cx="111.62622"
     inkscape:cy="124.66618"
     inkscape:document-units="mm"
     inkscape:current-layer="layer1"
     showgrid="false"
     fit-margin-top="0"
     fit-margin-left="0"
     fit-margin-right="0"
     fit-margin-bottom="0"
     inkscape:window-width="1920"
     inkscape:window-height="1043"
     inkscape:window-x="0"
     inkscape:window-y="0"
     inkscape:window-maximized="1" />
  <metadata
     id="metadata152">
    <rdf:RDF>
      <cc:Work
         rdf:about="">
        <dc:format>image/svg+xml</dc:format>
        <dc:type
           rdf:resource="http://purl.org/dc/dcmitype/StillImage" />
        <dc:title />
      </cc:Work>
    </rdf:RDF>
  </metadata>
  <g
     inkscape:label="Layer 1"
     inkscape:groupmode="layer"
     id="layer1"
     transform="translate(-40.084382,-18.072462)">
    <g
       id="g168"
       transform="translate(-46.11309,-48.380953)">
      <path
         style="fill:#fdfefe;stroke-width:0.26458335"
         d="m 100.40794,95.582573 -0.25581,-15.035299 5.66743,-2.011714 23.36455,10.371754 1.50011,5.384768 0.14752,14.220638 -19.60752,0.0661 -9.86046,-0.0472 z"
         id="path184"
         inkscape:connector-curvature="0"
         sodipodi:nodetypes="ccccccccc" />
      <path
         style="fill:#d3e6f2;stroke-width:0.26458335"
         d="M 110.18335,122.40489 C 91.752013,118.91755 81.977547,99.339489 90.441384,82.862139 96.463062,71.13917 109.97468,65.322168 122.65056,68.995494 c 5.06348,1.46734 10.32736,4.9792 13.61945,9.086376 8.85364,11.045699 8.10109,26.48162 -1.77551,36.41861 -3.81479,3.83811 -7.73459,6.11362 -12.78841,7.42388 -3.28253,0.85104 -8.43001,1.0657 -11.52274,0.48053 z m -3.08379,-23.804599 v -9.128125 h -2.51355 -2.51354 v 9.128125 9.128129 h 2.51354 2.51355 z m 9.56953,3.505729 c 0.10029,-6.264516 0.31772,-7.18993 1.91866,-8.166185 0.9982,-0.608697 3.0488,-0.657129 4.13088,-0.09757 1.54551,0.799214 1.70233,1.497883 1.79547,7.999175 l 0.0843,5.88697 h 2.51456 2.51455 l -0.088,-7.07761 c -0.076,-6.110228 -0.15286,-7.222251 -0.5624,-8.135931 -1.07588,-2.400255 -2.96108,-3.55683 -5.81262,-3.566064 -2.107,-0.0068 -3.18315,0.386044 -4.62456,1.688271 -0.57941,0.523463 -1.17514,0.951751 -1.32383,0.951751 -0.33669,0 -0.59155,-0.636287 -0.59155,-1.476847 0,-0.629309 -0.0391,-0.639819 -2.38125,-0.639819 h -2.38125 v 9.128125 9.128124 h 2.35851 2.35851 z M 105.60842,85.667769 c 2.56589,-1.072096 2.69788,-4.432953 0.22027,-5.608657 -1.19392,-0.566552 -2.40444,-0.314905 -3.37914,0.702471 -0.63719,0.66508 -0.77395,1.033619 -0.77395,2.085594 0,1.430981 0.52481,2.22845 1.85208,2.814323 1.00524,0.443723 1.03356,0.443809 2.08074,0.0063 z"
         id="path182"
         inkscape:connector-curvature="0" />
      <path
         style="fill:#a6cce6;stroke-width:0.26458335"
         d="m 110.09838,122.15331 c -10.565347,-1.91705 -18.932719,-9.70062 -21.705697,-20.19127 -0.564164,-2.134328 -0.683018,-3.19354 -0.703804,-6.272166 -0.01441,-2.134851 0.119927,-4.37673 0.317094,-5.291667 2.451601,-11.376449 10.529501,-19.452826 21.871707,-21.867584 2.04644,-0.435688 8.00772,-0.435688 10.05417,0 11.3422,2.414758 19.42011,10.491135 21.87171,21.867584 0.19716,0.914937 0.3315,3.156816 0.31709,5.291667 -0.0209,3.099398 -0.13828,4.133062 -0.71876,6.331116 -2.76089,10.45439 -11.24893,18.28172 -21.83543,20.13575 -2.67242,0.46802 -6.87818,0.4665 -9.46808,-0.003 z M 107.36414,98.591036 V 89.18907 l -2.71198,0.0754 -2.71198,0.0754 -0.0697,8.994082 c -0.0384,4.946748 -0.0123,9.143698 0.0578,9.326568 0.0907,0.23634 0.89503,0.33248 2.78172,0.33248 h 2.65414 z m 9.525,4.227464 c 0,-5.962861 0.21676,-7.196386 1.45573,-8.284217 1.67462,-1.470338 3.95751,-1.219738 5.27407,0.57895 0.50812,0.694196 0.55183,1.170263 0.62628,6.822127 l 0.08,6.07585 2.69808,-0.0753 2.69809,-0.0752 v -7.14375 c 0,-6.706656 -0.034,-7.216603 -0.55644,-8.334378 -1.081,-2.313049 -2.71622,-3.434023 -5.31348,-3.642507 -2.20597,-0.177074 -3.78622,0.299183 -5.24065,1.57942 -0.65086,0.572909 -1.30451,0.966792 -1.45255,0.875297 -0.14804,-0.0915 -0.26917,-0.58036 -0.26917,-1.086364 V 89.18842 l -2.57969,0.07573 -2.57969,0.07573 -0.0697,8.994082 c -0.0384,4.946748 -0.0123,9.143698 0.0578,9.326568 0.0901,0.23474 0.86894,0.33248 2.64944,0.33248 h 2.52184 z M 106.28327,85.647362 c 0.78641,-0.406667 1.61004,-1.82477 1.61004,-2.772118 0,-2.416591 -2.37504,-3.952908 -4.59371,-2.971485 -2.22675,0.984997 -2.64601,3.604493 -0.84331,5.268927 1.05595,0.974957 2.51063,1.155387 3.82698,0.474676 z"
         id="path180"
         inkscape:connector-curvature="0" />
      <path
         style="fill:#87bbde;stroke-width:0.26458335"
         d="m 111.98266,122.27637 c -11.17263,-1.1801 -20.37111,-9.14514 -23.469449,-20.32237 -0.470381,-1.6969 -0.564245,-2.770327 -0.570888,-6.528709 -0.0096,-5.433861 0.429957,-7.438362 2.610893,-11.906251 2.712607,-5.557074 6.888224,-9.732691 12.445294,-12.445298 4.45733,-2.175781 6.47166,-2.618844 11.90625,-2.618844 5.4346,0 7.44893,0.443063 11.90625,2.618844 5.55708,2.712607 9.7327,6.888224 12.4453,12.445298 1.91235,3.917652 2.54627,6.497375 2.6982,10.980209 0.0976,2.880485 0.0198,4.05841 -0.40176,6.085421 -1.08339,5.20867 -3.40433,9.65046 -6.99912,13.39487 -4.6232,4.81564 -10.18326,7.52772 -17.00303,8.29373 -2.60078,0.29213 -2.83037,0.29226 -5.56794,0.003 z m -4.67144,-14.33629 c 0.50051,-0.50051 0.45037,-18.292848 -0.0527,-18.710382 -0.23895,-0.198308 -1.24752,-0.280161 -2.84428,-0.230835 l -2.47404,0.07643 -0.0696,9.258911 c -0.0383,5.092396 -0.0123,9.408416 0.0578,9.591146 0.17289,0.45054 4.93401,0.46357 5.38285,0.0147 z m 9.42399,0.1569 c 0.3638,-0.1396 0.41851,-0.90971 0.41851,-5.8911 0,-5.047171 0.0579,-5.840445 0.48546,-6.652425 0.86779,-1.647984 3.12988,-2.317943 4.84019,-1.433507 1.43822,0.743733 1.65217,1.711589 1.80919,8.184512 l 0.1412,5.82083 h 2.64584 2.64583 l 0.0704,-7.05624 c 0.0656,-6.574153 0.0332,-7.155705 -0.47434,-8.512244 -0.91104,-2.434981 -3.47147,-4.142974 -6.21067,-4.142974 -1.43777,0 -3.42231,0.747257 -4.55153,1.713831 -0.59886,0.512602 -1.15921,0.932003 -1.24522,0.932003 -0.086,0 -0.15638,-0.414451 -0.15638,-0.921001 0,-1.13234 -0.34572,-1.251668 -3.30818,-1.141824 l -2.11578,0.07845 -0.0696,9.258911 c -0.0383,5.092398 -0.0123,9.408418 0.0578,9.591148 0.13405,0.34934 4.19237,0.48817 5.01725,0.17163 z m -9.87845,-22.746728 c 1.51449,-1.450971 1.49882,-3.549376 -0.0375,-5.021252 -0.69867,-0.669372 -1.01753,-0.77871 -2.27096,-0.77871 -1.34593,0 -1.52787,0.07607 -2.36388,0.988303 -0.76774,0.837748 -0.90571,1.181452 -0.90571,2.256232 0,1.431058 0.44937,2.2341 1.68453,3.010343 1.16612,0.732856 2.86036,0.534902 3.89351,-0.454916 z"
         id="path178"
         inkscape:connector-curvature="0" />
      <path
         style="fill:#5ba2d2;stroke-width:0.26458335"
         d="m 109.98202,121.8687 c -10.301773,-1.86506 -18.603167,-9.62106 -21.331103,-19.92966 -0.578535,-2.186229 -0.673476,-3.104476 -0.673476,-6.513749 0,-3.417952 0.09428,-4.325146 0.67931,-6.536746 2.601567,-9.834716 9.876552,-17.1097 19.711269,-19.711268 3.72407,-0.985124 9.34942,-0.985124 13.07349,0 9.83472,2.601568 17.1097,9.876552 19.71127,19.711268 0.58503,2.2116 0.67931,3.118794 0.67931,6.536746 0,3.407439 -0.0947,4.324247 -0.66951,6.482289 -3.69526,13.87327 -17.16771,22.49804 -31.18056,19.96112 z m -2.48559,-23.268409 v -9.525 h -2.91042 -2.91041 l -0.0696,9.258911 c -0.0383,5.092398 -0.0107,9.412468 0.0613,9.600148 0.0982,0.25602 0.8424,0.32247 2.98006,0.26609 l 2.84912,-0.0751 z m 9.65729,3.704169 c 0.14363,-6.319533 0.29936,-7.031125 1.74616,-7.979108 0.8681,-0.568799 2.78135,-0.570106 3.64763,-0.0024 1.26144,0.826524 1.34503,1.260806 1.48538,7.717018 l 0.13229,6.08541 h 2.91042 2.91041 l 0.0711,-6.48229 c 0.0431,-3.935236 -0.042,-7.027051 -0.21665,-7.868717 -0.68539,-3.302611 -3.23458,-5.360559 -6.64002,-5.360559 -2.04995,0 -3.21855,0.395325 -4.74695,1.605844 -1.05989,0.839443 -1.15744,0.809516 -1.35348,-0.415219 -0.0771,-0.481677 -0.31991,-0.53601 -2.7056,-0.605427 -1.91847,-0.05582 -2.67886,0.01509 -2.83716,0.264583 -0.24977,0.393687 -0.30675,17.942205 -0.0603,18.584355 0.13882,0.36176 0.57577,0.41589 2.84427,0.35237 l 2.68025,-0.075 z M 106.59968,85.74714 c 2.48696,-1.770869 1.83948,-5.489659 -1.10272,-6.333471 -2.71507,-0.778672 -5.19706,2.020568 -4.17427,4.707841 0.75932,1.995064 3.55059,2.854939 5.27699,1.62563 z"
         id="path176"
         inkscape:connector-curvature="0" />
      <path
         style="fill:#2e89c7;stroke-width:0.26458335"
         d="m 109.38204,121.58279 c -10.149425,-2.17655 -17.813063,-9.50681 -20.588953,-19.69332 -0.849184,-3.116202 -0.854165,-9.914268 -0.0095,-12.992888 1.374882,-5.011265 3.841186,-9.251392 7.37727,-12.683175 3.490145,-3.387197 7.351083,-5.571754 12.215223,-6.911495 2.95139,-0.812908 10.10602,-0.812908 13.05741,0 9.82361,2.70574 16.91406,9.797863 19.59003,19.59467 0.77595,2.840756 0.83436,9.576484 0.10824,12.481838 -2.60006,10.40332 -10.53288,18.08354 -20.88744,20.22233 -2.5549,0.52773 -8.36242,0.51813 -10.86226,-0.018 z m -1.80623,-13.37812 c 0.50005,-0.50006 0.45067,-18.821771 -0.0519,-19.238834 -0.24173,-0.200616 -1.31599,-0.28038 -3.10886,-0.230834 l -2.73949,0.0757 -0.0696,9.523731 c -0.0383,5.238057 -0.0122,9.673137 0.0578,9.855737 0.1738,0.45291 5.46055,0.46588 5.91193,0.0145 z m 9.525,0 c 0.22662,-0.22663 0.3175,-1.89513 0.3175,-5.82934 0,-5.861718 0.14203,-6.698629 1.31417,-7.743789 0.43723,-0.389856 0.96767,-0.529167 2.01488,-0.529167 1.20023,0 1.53558,0.114059 2.15504,0.732973 l 0.73361,0.732975 0.1323,6.199878 c 0.084,3.93773 0.2372,6.30451 0.41983,6.48665 0.18015,0.17967 1.31657,0.25844 3.04271,0.2109 l 2.75516,-0.0759 0.0705,-7.09927 c 0.0408,-4.107555 -0.0401,-7.50998 -0.19192,-8.073863 -0.47124,-1.750066 -1.66172,-3.288337 -3.2051,-4.141446 -1.26263,-0.697926 -1.69152,-0.793197 -3.55265,-0.789171 -2.24901,0.0049 -3.67543,0.512839 -4.73736,1.687058 -0.65278,0.721801 -0.95118,0.705732 -0.95118,-0.05122 0,-1.039513 -0.48265,-1.243541 -2.9417,-1.243541 -1.26868,0 -2.49502,0.07227 -2.72521,0.160599 -0.37099,0.142365 -0.41851,1.251341 -0.41851,9.767536 0,7.437988 0.0747,9.637068 0.33073,9.740388 0.71142,0.28706 5.12329,0.17162 5.43719,-0.14227 z M 106.79905,85.836014 c 0.38356,-0.285636 0.92777,-1.072635 1.20937,-1.748885 0.50688,-1.21728 0.50681,-1.242022 -0.006,-2.479987 -1.61751,-3.902876 -7.09286,-2.883284 -7.03498,1.310018 0.0404,2.925678 3.49853,4.656489 5.83186,2.918854 z"
         id="path174"
         inkscape:connector-curvature="0" />
      <path
         style="fill:#177cc1;stroke-width:0.26458335"
         d="m 110.93601,121.7248 c -3.50398,-0.50015 -7.91393,-2.23571 -11.220886,-4.41605 -1.987934,-1.31068 -5.49935,-4.82664 -6.89414,-6.90306 -6.121008,-9.11231 -6.168637,-20.722727 -0.122379,-29.831622 8.115425,-12.226169 24.746015,-15.526914 37.057385,-7.354936 13.93659,9.250763 15.91587,29.050108 4.08659,40.879388 -6.0172,6.01721 -14.46807,8.83075 -22.90657,7.62628 z m -3.175,-23.124509 v -9.789584 h -3.175 -3.175 l -0.0696,9.523731 c -0.0383,5.238052 -0.0108,9.676922 0.0611,9.864172 0.0986,0.25688 0.89491,0.32213 3.24456,0.26585 l 3.11391,-0.0746 z m 9.66838,3.836459 c 0.1512,-6.277452 0.22663,-6.667961 1.47813,-7.652399 0.99972,-0.786376 2.98996,-0.761947 3.71697,0.04563 0.97071,1.078273 1.01041,1.337689 1.14382,7.474479 l 0.13229,6.08541 h 3.175 3.175 v -7.54062 c 0,-7.08927 -0.0331,-7.612066 -0.55249,-8.734218 -0.68699,-1.484179 -2.01707,-2.837782 -3.41039,-3.470724 -2.27055,-1.031437 -6.28339,-0.465422 -7.97791,1.125292 l -0.5637,0.52917 -0.28549,-0.818941 -0.28548,-0.818941 -2.98727,0.07491 -2.98727,0.07491 -0.0696,9.523731 c -0.0383,5.238051 -0.0107,9.677051 0.0612,9.864441 0.0984,0.25634 0.8691,0.32217 3.11227,0.26585 l 2.98152,-0.0749 z M 106.29631,86.23102 c 4.30276,-2.20634 1.37215,-8.730054 -3.11517,-6.934582 -3.08134,1.23291 -3.205324,5.50936 -0.20281,6.995609 1.37528,0.680766 1.88981,0.671303 3.31798,-0.06103 z"
         id="path172"
         inkscape:connector-curvature="0" />
      <path
         style="fill:#006fbb;stroke-width:0.26458335"
         d="m 110.37844,121.46343 c -3.4102,-0.57045 -7.45245,-2.21154 -10.554926,-4.28514 -2.389125,-1.59681 -6.143445,-5.56476 -7.644375,-8.07935 -6.732489,-11.279326 -4.354769,-25.575293 5.66,-34.03057 2.953561,-2.493633 6.601521,-4.351525 10.783851,-5.492172 2.95767,-0.806647 9.60588,-0.806647 12.56355,0 9.98201,2.722396 16.85623,9.597334 19.56524,19.567314 0.45148,1.661585 0.55798,2.822949 0.56389,6.149487 0.006,3.615367 -0.0757,4.410364 -0.69318,6.712951 -2.64178,9.85066 -10.40562,17.16535 -20.42606,19.24437 -2.54031,0.52706 -7.32082,0.63083 -9.81799,0.21311 z m -2.53805,-12.99418 c 0.45532,-0.45532 0.45532,-19.282595 0,-19.737918 -0.20936,-0.209364 -1.33261,-0.3175 -3.29798,-0.3175 -2.67593,0 -3.00847,0.0523 -3.25438,0.511773 -0.17368,0.324518 -0.27389,3.864433 -0.27389,9.674686 0,5.810249 0.10021,9.350169 0.27389,9.674689 0.24591,0.45947 0.57845,0.51177 3.25438,0.51177 1.96537,0 3.08862,-0.10814 3.29798,-0.3175 z m 9.42398,0.1569 c 0.36357,-0.13951 0.41852,-0.90304 0.41852,-5.81548 0,-6.484227 0.20095,-7.440659 1.7142,-8.158743 1.03854,-0.492818 1.3767,-0.511286 2.45824,-0.134258 1.47726,0.514975 1.64839,1.328894 1.64839,7.840001 0,4.15373 0.0899,5.88397 0.3175,6.11158 0.20937,0.20936 1.33261,0.3175 3.29799,0.3175 2.67592,0 3.00847,-0.0523 3.25437,-0.51177 0.37758,-0.70551 0.35835,-12.557457 -0.0233,-14.358021 -0.74442,-3.512119 -2.93614,-5.620811 -6.19133,-5.956776 -2.11768,-0.218564 -3.66976,0.116852 -5.14994,1.112945 -1.30854,0.880572 -1.32614,0.884252 -1.32614,0.277161 0,-0.833255 -0.395,-0.936457 -3.58421,-0.936457 -2.44526,0 -2.77727,0.05624 -3.02106,0.511773 -0.17368,0.324518 -0.2739,3.864433 -0.2739,9.674686 0,5.810249 0.10022,9.350169 0.2739,9.674689 0.24379,0.45553 0.5758,0.51177 3.02106,0.51177 1.51095,0 2.93551,-0.0723 3.16569,-0.1606 z M 106.56792,86.335441 c 1.01324,-0.543406 2.12262,-2.356211 2.11333,-3.453328 -0.01,-1.153066 -0.96111,-2.887038 -1.89704,-3.457659 -1.17417,-0.715872 -3.16963,-0.71425 -4.33101,0.0035 -0.90165,0.557251 -1.96823,2.379993 -1.96823,3.363626 0,1.327485 1.29325,3.27279 2.51354,3.780866 0.9223,0.384005 2.62187,0.271146 3.56941,-0.237027 z"
         id="path170"
         inkscape:connector-curvature="0" />
    </g>
  </g>
</svg>
