<?xml version="1.0" encoding="UTF-8" standalone="no"?>
<!-- Created with Inkscape (http://www.inkscape.org/) -->

<svg
   xmlns:dc="http://purl.org/dc/elements/1.1/"
   xmlns:cc="http://creativecommons.org/ns#"
   xmlns:rdf="http://www.w3.org/1999/02/22-rdf-syntax-ns#"
   xmlns:svg="http://www.w3.org/2000/svg"
   xmlns="http://www.w3.org/2000/svg"
   xmlns:sodipodi="http://sodipodi.sourceforge.net/DTD/sodipodi-0.dtd"
   xmlns:inkscape="http://www.inkscape.org/namespaces/inkscape"
   width="144.49777mm"
   height="144.49777mm"
   viewBox="0 0 144.49777 144.49777"
   version="1.1"
   id="svg211"
   inkscape:version="0.92.5 (2060ec1f9f, 2020-04-08)"
   sodipodi:docname="whatsapp.svg">
  <defs
     id="defs205" />
  <sodipodi:namedview
     id="base"
     pagecolor="#ffffff"
     bordercolor="#666666"
     borderopacity="1.0"
     inkscape:pageopacity="0.0"
     inkscape:pageshadow="2"
     inkscape:zoom="1.4"
     inkscape:cx="306.64151"
     inkscape:cy="294.85246"
     inkscape:document-units="mm"
     inkscape:current-layer="layer1"
     showgrid="false"
     fit-margin-top="0"
     fit-margin-left="0"
     fit-margin-right="0"
     fit-margin-bottom="0"
     inkscape:window-width="1920"
     inkscape:window-height="1043"
     inkscape:window-x="0"
     inkscape:window-y="0"
     inkscape:window-maximized="1" />
  <metadata
     id="metadata208">
    <rdf:RDF>
      <cc:Work
         rdf:about="">
        <dc:format>image/svg+xml</dc:format>
        <dc:type
           rdf:resource="http://purl.org/dc/dcmitype/StillImage" />
        <dc:title />
      </cc:Work>
    </rdf:RDF>
  </metadata>
  <g
     inkscape:label="Layer 1"
     inkscape:groupmode="layer"
     id="layer1"
     transform="translate(-21.489218,-14.596359)">
    <g
       id="g224"
       transform="translate(-9.0714257,-9.0714285)">
      <path
         style="fill:#ffffff;fill-opacity:1;stroke:none;stroke-width:0.26458332px;stroke-linecap:butt;stroke-linejoin:miter;stroke-opacity:1"
         d="m 71.341763,157.42193 -34.032554,8.07094 c -1.015257,-0.81301 -1.339263,-2.17902 0.303626,-5.11854 L 44.92639,130.88147 C 41.905438,125.62265 39.249153,118.64556 37.843748,111.7717 L 37.576478,62.260021 C 35.991943,20.931979 59.305324,30.608888 150.30083,30.337896 c 8.79066,1.274597 19.3671,10.619007 21.54463,23.434524 l 0.83423,86.18668 c -1.70475,9.98917 -2.89403,26.61334 -38.03385,25.89136 l -35.646311,-0.12143 c -12.000716,-1.53283 -20.440731,-4.64819 -27.657766,-8.3071 z"
         id="path40"
         inkscape:connector-curvature="0"
         sodipodi:nodetypes="cccccccccccc" />
      <path
         style="fill:#a0a1a0;stroke-width:0.28222221"
         d="m 98.999529,165.72903 c -10.482986,-1.2933 -16.25253,-2.87391 -24.051132,-6.58898 l -3.606644,-1.71813 -13.264444,3.22816 c -21.239534,5.16905 -20.768928,5.06277 -21.072631,4.75907 -0.608713,-0.60872 -0.603232,-2.53246 0.01083,-3.80094 l 0.597318,-1.23389 16.804132,-4.05469 16.804131,-4.05468 2.607694,1.3032 c 5.594866,2.79606 11.699349,4.7271 19.102969,6.04287 2.298124,0.40843 5.432961,0.49134 21.945468,0.58047 17.67076,0.0954 19.27908,0.0656 19.44237,-0.35991 0.22298,-0.58107 -3.84205,-4.80308 -5.18378,-5.38396 -0.73734,-0.31922 -3.65682,-0.39361 -15.52222,-0.39549 -8.08804,-0.001 -15.748317,-0.13109 -17.15406,-0.29069 -6.437884,-0.73093 -12.660725,-2.50027 -18.52315,-5.26667 l -3.283147,-1.54928 -14.758424,3.56102 c -8.117133,1.95856 -14.860009,3.45943 -14.984169,3.33527 -0.12416,-0.12416 1.604438,-6.41274 3.841327,-13.97462 l 4.067072,-13.74887 -1.934576,-3.88247 c -3.776368,-7.57875 -5.590375,-14.24101 -6.205655,-22.791369 -0.370647,-5.150784 -0.372679,-35.522169 -0.0026,-39.42436 0.468741,-4.942992 1.98116,-8.855408 4.969109,-12.854392 2.875657,-3.848696 7.791454,-7.180563 12.684614,-8.597478 l 2.238527,-0.648212 h 38.241112 38.24111 l 2.23853,0.648212 c 7.97737,2.310012 14.31983,8.557935 16.77987,16.529762 1.12068,3.631565 1.19809,6.82051 1.05259,43.35869 -0.0763,19.169947 -0.16442,35.215477 -0.19574,35.656737 -0.0476,0.67079 0.39961,1.26056 2.7286,3.59833 1.53206,1.53782 2.98479,2.79604 3.2283,2.79604 0.2435,0 0.59097,0.14824 0.77215,0.32942 0.37442,0.37442 0.42515,0.28014 0.93643,-1.74053 0.6291,-2.48626 1.10106,-79.933849 0.51893,-85.154432 -1.04199,-9.344651 -6.94238,-17.711705 -15.35966,-21.780776 -1.55222,-0.750373 -3.13972,-1.510692 -3.52778,-1.689598 -1.52162,-0.701516 1.74185,-0.01906 3.91334,0.818362 7.52764,2.902962 13.96959,9.647193 16.5461,17.322502 1.61595,4.813845 1.56184,3.403095 1.84142,48.009501 0.16964,27.066661 0.16235,42.075951 -0.0213,43.744441 -0.39517,3.59098 -1.19847,6.33873 -2.80524,9.59556 -3.70572,7.51126 -10.42964,12.9585 -18.72409,15.16892 -2.27293,0.60573 -2.61596,0.61417 -26.71472,0.65797 -13.42672,0.0244 -24.793223,-0.003 -25.25889,-0.0601 z M 125.7699,127.65025 c 3.87633,-0.98301 8.51187,-3.97037 10.06805,-6.48833 1.41292,-2.28615 2.44821,-8.01457 1.70084,-9.41104 -0.63225,-1.18136 -14.55985,-7.72673 -16.44137,-7.72673 -1.36679,0 -1.66778,0.27396 -4.77921,4.35007 -3.18299,4.16986 -4.24247,4.74934 -6.94192,3.79692 -2.20897,-0.77937 -6.84115,-3.23572 -9.433614,-5.00245 C 94.022984,103.13448 85.31491,92.9889 85.312477,90.123359 c -8.46e-4,-1.01655 0.361945,-1.578056 2.821452,-4.366685 1.026767,-1.164167 2.081821,-2.461449 2.344558,-2.882849 0.887149,-1.422869 0.616582,-2.556095 -2.241095,-9.386477 -4.179706,-9.990274 -3.878507,-9.54191 -6.641177,-9.886097 -2.375797,-0.295989 -5.329631,0.286554 -6.938842,1.36845 -2.798236,1.881296 -5.580287,6.352594 -6.411657,10.304777 -1.491519,7.090435 0.54976,13.798295 6.932351,22.780454 3.457564,4.865798 5.419635,7.238728 9.286959,11.231668 8.02686,8.28758 15.201476,12.74384 27.069404,16.8132 5.66249,1.94161 10.58073,2.47727 14.23547,1.55045 z m -82.025597,1.08669 c -2.295137,-4.45226 -4.400883,-10.12161 -5.409414,-14.56389 -0.750624,-3.30628 -0.452996,-3.01582 0.813211,0.79362 1.547927,4.65701 2.548098,7.01376 4.839924,11.40456 1.74228,3.33794 2.075369,4.50507 1.353468,4.7425 -0.174921,0.0575 -0.893657,-1.01203 -1.597189,-2.37679 z"
         id="path238"
         inkscape:connector-curvature="0" />
      <path
         style="fill:#6fbf8b;stroke-width:0.28222221"
         d="m 101.1162,163.46001 c -5.683615,-0.2517 -11.087027,-1.09744 -15.971871,-2.49991 -2.72492,-0.78234 -7.240882,-2.41364 -7.0925,-2.56202 0.05046,-0.0505 1.355341,0.33569 2.899726,0.85813 3.453019,1.16809 7.739786,2.21561 11.839086,2.89301 2.832929,0.46814 5.251887,0.513 27.657779,0.513 22.68119,0 24.73503,-0.0391 26.93634,-0.51355 11.0978,-2.39167 19.28342,-10.68508 22.05602,-22.34644 l 0.5368,-2.25778 -0.14262,1.84706 c -0.79183,10.25513 -9.39202,20.22761 -19.93966,23.12131 -1.15651,0.31728 -3.36568,0.69967 -4.90926,0.84975 -2.44941,0.23815 -38.86605,0.31903 -43.86984,0.0974 z m -63.500001,-0.62145 c 0,-0.13584 2.69875,-0.89729 5.997222,-1.69209 21.985835,-5.29773 26.907466,-6.4459 27.112108,-6.32499 0.126743,0.0749 0.190243,0.17337 0.141111,0.21885 -0.121448,0.11242 -32.641368,8.04523 -32.980794,8.04523 -0.148306,0 -0.269647,-0.11115 -0.269647,-0.247 z m 61.499981,-9.07521 c -4.21178,-0.26636 -6.603926,-0.65955 -11.123317,-1.82833 -3.707223,-0.95874 -8.438836,-2.71928 -11.608302,-4.31922 l -1.7276,-0.8721 -14.622573,3.5174 c -8.042417,1.93458 -14.718954,3.42074 -14.836751,3.3026 -0.117796,-0.11814 1.557191,-6.23405 3.722193,-13.59089 2.165003,-7.35685 3.936368,-13.58996 3.936368,-13.85136 0,-0.2614 -0.698196,-1.8122 -1.551546,-3.44624 -2.043617,-3.9132 -3.075018,-6.45266 -4.219752,-10.38965 -2.315422,-7.96323 -2.464035,-10.10333 -2.351769,-33.866664 0.09388,-19.87205 0.104908,-20.212989 0.725136,-22.421431 2.52333,-8.984821 9.250678,-15.434347 18.316959,-17.560515 2.077505,-0.487204 4.322908,-0.516941 39.034304,-0.516941 34.71139,0 36.9568,0.02974 39.0343,0.516941 9.06471,2.125799 15.77022,8.552422 18.32256,17.560515 l 0.63539,2.242543 0.0849,36.265554 c 0.058,24.792748 -0.0116,37.024458 -0.22,38.664438 -0.69856,5.49616 -2.8229,9.67843 -7.02427,13.82889 -3.87576,3.8288 -7.92288,5.92901 -13.01511,6.75407 -2.0861,0.338 -36.19576,0.34653 -41.51112,0.0104 z m 26.0123,-25.70473 c 3.62804,-0.77807 7.6251,-3.03622 9.94855,-5.62046 1.0097,-1.12303 1.47249,-1.97386 2.02503,-3.72294 0.96037,-3.04011 1.22721,-6.15945 0.60778,-7.10482 -0.44693,-0.68211 -4.30965,-2.68337 -12.10123,-6.26962 -4.87065,-2.24184 -5.80024,-2.08705 -8.30949,1.38361 -1.91665,2.65099 -3.53897,4.56506 -4.29334,5.06542 -1.21791,0.80782 -2.72949,0.61482 -5.7092,-0.72895 -8.357559,-3.76904 -15.983954,-10.54002 -20.694322,-18.373139 -1.558527,-2.59176 -1.445488,-3.266677 1.000887,-5.975957 2.602874,-2.882598 3.635274,-4.492681 3.635274,-5.669409 0,-0.951778 -5.096801,-13.592104 -6.362223,-15.77864 -0.930775,-1.608291 -1.777461,-1.890071 -5.274502,-1.755346 -2.560551,0.09864 -3.074526,0.20852 -4.417243,0.944315 -3.332172,1.825995 -6.413601,6.800921 -7.252112,11.708435 -1.11123,6.503632 0.96417,13.228564 6.532301,21.166665 9.560402,13.629596 19.510499,22.195726 31.16711,26.832046 9.49456,3.77638 14.96587,4.87049 19.49673,3.89879 z m 44.94482,6.80472 c 0,-1.16417 0.0498,-1.64042 0.1107,-1.05834 0.0609,0.58209 0.0609,1.53459 0,2.11667 -0.0609,0.58208 -0.1107,0.10583 -0.1107,-1.05833 z"
         id="path236"
         inkscape:connector-curvature="0" />
      <path
         style="fill:#4db456;stroke-width:0.28222221"
         d="m 101.1162,163.46001 c -5.683615,-0.2517 -11.087027,-1.09744 -15.971871,-2.49991 -2.72492,-0.78234 -7.240882,-2.41364 -7.0925,-2.56202 0.05046,-0.0505 1.355341,0.33569 2.899726,0.85813 3.453019,1.16809 7.739786,2.21561 11.839086,2.89301 2.832929,0.46814 5.251887,0.513 27.657779,0.513 22.68119,0 24.73503,-0.0391 26.93634,-0.51355 11.0978,-2.39167 19.28342,-10.68508 22.05602,-22.34644 l 0.5368,-2.25778 -0.14262,1.84706 c -0.79183,10.25513 -9.39202,20.22761 -19.93966,23.12131 -1.15651,0.31728 -3.36568,0.69967 -4.90926,0.84975 -2.44941,0.23815 -38.86605,0.31903 -43.86984,0.0974 z m -63.500001,-0.62145 c 0,-0.13584 2.69875,-0.89729 5.997222,-1.69209 21.985835,-5.29773 26.907466,-6.4459 27.112108,-6.32499 0.126743,0.0749 0.190243,0.17337 0.141111,0.21885 -0.121448,0.11242 -32.641368,8.04523 -32.980794,8.04523 -0.148306,0 -0.269647,-0.11115 -0.269647,-0.247 z m 74.506661,-9.35731 c -17.18207,-0.18457 -17.880226,-0.23893 -24.124341,-1.87848 -3.641488,-0.95617 -6.484261,-2.00193 -10.273238,-3.77918 l -3.057198,-1.434 -14.434712,3.45514 c -7.93909,1.90033 -14.509666,3.38019 -14.60128,3.28857 -0.09161,-0.0916 1.559832,-6.07077 3.66988,-13.28701 2.110047,-7.21624 3.83645,-13.36558 3.83645,-13.66519 0,-0.29961 -0.865582,-2.24693 -1.923515,-4.32737 -2.142661,-4.21357 -4.242712,-10.19958 -5.089463,-14.50706 -1.123669,-5.71618 -1.218705,-8.187202 -1.112567,-28.927774 0.10011,-19.562794 0.112385,-19.934551 0.731502,-22.154443 2.289875,-8.210516 7.884095,-14.160535 15.860709,-16.869468 l 2.681111,-0.910531 h 38.523332 38.52333 l 2.68111,0.910531 c 7.97284,2.70765 13.53347,8.618293 15.87051,16.869468 l 0.63949,2.257778 V 96.481117 134.44 l -0.66086,2.10452 c -1.74725,5.5641 -5.20487,10.23213 -9.84051,13.28538 -4.80331,3.16369 -8.15993,3.96678 -16.22729,3.88248 -3.14979,-0.0329 -12.90239,-0.13692 -21.67245,-0.23113 z m 13.10058,-25.2503 c 4.4057,-0.93333 9.59115,-4.34272 11.21662,-7.37484 0.96668,-1.80323 1.70819,-4.85923 1.75265,-7.22326 0.0315,-1.67618 -0.0468,-1.97982 -0.66985,-2.59536 -0.64254,-0.63483 -10.87752,-5.66181 -14.16893,-6.95917 -1.78076,-0.7019 -3.06736,-0.68746 -3.9984,0.0449 -0.41011,0.32259 -1.88791,2.08526 -3.28399,3.91702 -2.78796,3.65803 -3.45079,4.12444 -5.52858,3.89024 -2.89367,-0.32616 -10.44958,-4.69936 -14.725941,-8.52306 -5.100537,-4.560637 -10.569258,-11.999568 -10.124422,-13.771935 0.09129,-0.363748 1.263859,-1.912253 2.605695,-3.441124 2.407929,-2.743561 3.222349,-4.072944 3.222349,-5.25986 0,-1.016074 -6.280728,-15.848662 -7.100189,-16.767826 -0.729491,-0.81825 -0.849667,-0.849901 -3.580708,-0.943046 -3.907364,-0.133262 -5.440423,0.341229 -7.618882,2.358099 -6.618433,6.127499 -7.699787,15.912103 -2.830091,25.607974 2.517674,5.012848 8.255432,12.677858 13.650137,18.235078 8.311735,8.56211 15.175043,12.88099 26.798812,16.8637 6.55279,2.24521 10.46241,2.77319 14.38372,1.94247 z m 44.84986,6.63239 c 0,-1.16417 0.0498,-1.64042 0.1107,-1.05834 0.0609,0.58209 0.0609,1.53459 0,2.11667 -0.0609,0.58208 -0.1107,0.10583 -0.1107,-1.05833 z"
         id="path234"
         inkscape:connector-curvature="0" />
      <path
         style="fill:#30aa52;stroke-width:0.28222221;fill-opacity:0.19607843"
         d="m 97.306196,163.17556 c -3.409182,-0.29396 -11.935713,-1.93614 -11.631639,-2.24021 0.06528,-0.0653 0.931096,0.0696 1.92405,0.29965 5.96872,1.38306 6.015758,1.38526 31.953993,1.49284 26.43373,0.10963 26.71716,0.0969 31.07793,-1.39439 6.81761,-2.33149 12.94286,-7.59762 16.15837,-13.89201 0.8942,-1.75041 2.6143,-6.47515 2.65781,-7.30044 0.0225,-0.42802 0.071,-0.47706 0.15589,-0.15782 0.24217,0.91079 -1.07086,5.23032 -2.43285,8.00349 -3.76901,7.67411 -10.76656,13.13732 -19.00436,14.83731 -2.44344,0.50424 -4.01134,0.53376 -26.16475,0.49265 -12.96106,-0.024 -24.073555,-0.0875 -24.694444,-0.14107 z m -59.407775,-0.3532 c 0,-0.16569 0.04499,-0.30125 0.09997,-0.30125 0.05498,0 7.26223,-1.71657 16.01611,-3.8146 8.753879,-2.09803 16.103504,-3.77964 16.332499,-3.73692 0.228992,0.0427 -1.295008,0.48774 -3.386667,0.98893 -6.072713,1.4551 -28.025516,6.84313 -28.568019,7.01165 -0.271639,0.0844 -0.493889,0.0179 -0.493889,-0.14781 z m 46.79597,-2.18737 c 0.203728,-0.0815 0.447144,-0.0715 0.540927,0.0223 0.09378,0.0938 -0.07291,0.16048 -0.370417,0.14823 -0.328774,-0.0135 -0.395647,-0.0804 -0.17051,-0.17051 z M 122.70167,147.65021 C 111.12522,136.62812 108.87979,134.5207 107.23988,133.13875 l -1.63743,-1.37986 H 78.9471 c -23.604631,0 -26.655346,-0.0489 -26.655346,-0.4269 0,-0.2348 0.254,-1.3435 0.564444,-2.46377 0.310445,-1.12028 0.564445,-2.28326 0.564445,-2.5844 0,-0.30113 -1.014224,-2.58969 -2.253831,-5.08567 -3.547909,-7.14381 -5.29547,-13.44633 -5.953606,-21.471477 -0.327788,-3.996975 -0.158181,-35.199606 0.212084,-39.01722 l 0.171078,-1.763889 h 57.226802 57.2268 l 0.23082,2.469444 c 0.29446,3.150286 0.29424,66.554182 -2.4e-4,68.721112 -0.15153,1.11502 -0.34663,1.62277 -0.62355,1.62277 -0.52418,0 -0.51451,0.40281 0.0203,0.84667 0.58657,0.48681 0.52912,1.8554 -0.17351,4.13305 -1.88305,6.10412 -6.18422,11.16406 -11.96205,14.07229 -4.0203,2.02359 -6.06788,2.43878 -12.84563,2.60477 l -5.79008,0.1418 -6.20437,-5.90726 z m 2.96786,-19.32146 c 2.22127,-0.51924 6.80626,-2.91868 8.52551,-4.46162 1.88889,-1.69518 3.12799,-3.98453 3.74807,-6.9249 0.63515,-3.01184 0.56374,-5.03436 -0.20858,-5.90765 -0.56789,-0.64213 -10.45297,-5.51937 -14.10039,-6.95705 -1.65657,-0.65296 -3.39237,-0.69585 -4.2925,-0.10606 -0.36497,0.23914 -1.74382,1.85839 -3.06411,3.59833 -3.15568,4.15871 -3.31479,4.29243 -5.1074,4.29243 -1.22774,0 -2.05851,-0.29604 -5.26204,-1.87508 -7.217072,-3.55736 -12.652477,-8.22622 -17.530524,-15.058255 -3.036127,-4.252298 -3.137021,-5.057382 -0.945741,-7.546362 3.23511,-3.674618 4.08905,-4.979379 4.085926,-6.243018 -0.002,-0.843658 -0.925068,-3.400292 -3.320867,-9.198688 -3.912765,-9.469817 -3.560436,-9.05631 -7.738233,-9.081877 -4.320292,-0.02644 -6.066288,0.746825 -8.707049,3.85616 -6.036781,7.107941 -5.989995,17.568934 0.122109,27.302247 7.918638,12.610163 17.467593,22.146433 27.831374,27.794423 4.571015,2.49108 13.897785,5.87312 18.062225,6.54967 1.16416,0.18912 2.30716,0.38834 2.54,0.44271 0.64411,0.1504 3.93213,-0.14112 5.36222,-0.47541 z m 44.04894,10.32107 c 0.0136,-0.32877 0.0804,-0.39565 0.17051,-0.17051 0.0815,0.20373 0.0715,0.44715 -0.0223,0.54093 -0.0938,0.0938 -0.16048,-0.0729 -0.14823,-0.37042 z"
         id="path232"
         inkscape:connector-curvature="0" />
      <path
         style="fill:#17a24e;stroke-width:0.28222221;fill-opacity:0.18137255"
         d="m 97.306196,163.17556 c -3.409182,-0.29396 -11.935713,-1.93614 -11.631639,-2.24021 0.06528,-0.0653 0.931096,0.0696 1.92405,0.29965 5.96872,1.38306 6.015758,1.38526 31.953993,1.49284 26.43373,0.10963 26.71716,0.0969 31.07793,-1.39439 6.81761,-2.33149 12.94286,-7.59762 16.15837,-13.89201 0.8942,-1.75041 2.6143,-6.47515 2.65781,-7.30044 0.0225,-0.42802 0.071,-0.47706 0.15589,-0.15782 0.24217,0.91079 -1.07086,5.23032 -2.43285,8.00349 -3.76901,7.67411 -10.76656,13.13732 -19.00436,14.83731 -2.44344,0.50424 -4.01134,0.53376 -26.16475,0.49265 -12.96106,-0.024 -24.073555,-0.0875 -24.694444,-0.14107 z m -59.407775,-0.3532 c 0,-0.16569 0.04499,-0.30125 0.09997,-0.30125 0.05498,0 7.26223,-1.71657 16.01611,-3.8146 8.753879,-2.09803 16.103504,-3.77964 16.332499,-3.73692 0.228992,0.0427 -1.295008,0.48774 -3.386667,0.98893 -6.072713,1.4551 -28.025516,6.84313 -28.568019,7.01165 -0.271639,0.0844 -0.493889,0.0179 -0.493889,-0.14781 z m 46.79597,-2.18737 c 0.203728,-0.0815 0.447144,-0.0715 0.540927,0.0223 0.09378,0.0938 -0.07291,0.16048 -0.370417,0.14823 -0.328774,-0.0135 -0.395647,-0.0804 -0.17051,-0.17051 z m 33.072889,-18.03644 c -6.13126,-6.02731 -14.35049,-14.10694 -18.264958,-17.95475 -3.914464,-3.84781 -7.017291,-6.99602 -6.895177,-6.99602 0.122118,0 1.407886,0.77338 2.857263,1.71863 7.540062,4.91743 20.259302,9.57026 26.161762,9.57026 3.92478,0 9.39029,-2.17039 12.44368,-4.94147 1.98316,-1.79979 2.90818,-3.22111 3.58,-5.50075 0.63058,-2.13971 1.05007,-6.72043 0.67894,-7.41389 -0.51654,-0.96517 -14.55214,-7.43879 -16.71813,-7.71088 -1.46483,-0.18402 -2.54916,0.45352 -4.03607,2.37302 -0.59251,0.76488 -1.7722,2.29483 -2.62154,3.39988 -1.88701,2.45513 -2.93471,3.04358 -4.64995,2.61168 -4.37152,-1.10077 -11.646516,-5.6848 -16.1877,-10.2 -3.243402,-3.224852 -7.707248,-9.20097 -8.129605,-10.883776 -0.262159,-1.04453 0.0991,-1.68761 2.439373,-4.342333 2.650058,-3.006129 3.505429,-4.518914 3.257124,-5.76044 -0.09597,-0.47984 -1.381534,-3.780849 -2.856817,-7.335579 -1.475283,-3.55473 -2.614326,-6.53115 -2.531206,-6.61427 0.08312,-0.08312 2.150305,1.813597 4.593748,4.214924 2.443443,2.401327 5.027204,4.836563 5.74169,5.411636 l 1.299066,1.045585 h 31.227047 31.22704 v 17.92111 17.921113 h -9.87778 c -5.43278,0 -9.87778,0.10743 -9.87778,0.23872 0,0.44968 5.76865,6.67603 12.62084,13.62223 3.76887,3.82058 6.8525,7.04075 6.8525,7.15593 0,0.6785 -1.00775,3.90409 -1.68941,5.40747 -2.89445,6.38356 -8.7645,11.29978 -15.66726,13.12145 -1.81763,0.47968 -3.38566,0.62347 -8.04336,0.73755 l -5.78558,0.14171 z m 51.95119,-3.94873 c 0.0136,-0.32877 0.0804,-0.39565 0.17051,-0.17051 0.0815,0.20373 0.0715,0.44715 -0.0223,0.54093 -0.0938,0.0938 -0.16048,-0.0729 -0.14823,-0.37042 z M 47.664011,111.79167 c -0.75549,-2.30295 -1.601292,-6.2215 -2.017169,-9.3454 -0.285893,-2.14752 -0.401192,-6.154329 -0.405133,-14.079041 l -0.0055,-11.077222 h 10.865555 10.865555 v 2.362703 c 0,4.696335 2.008101,10.250079 5.810486,16.069867 2.948452,4.512793 7.123707,9.908233 10.524086,13.599653 1.71581,1.86266 3.123952,3.48191 3.129207,3.59833 0.0052,0.11642 -8.616239,0.21167 -19.158875,0.21167 h -19.16843 z"
         id="path230"
         inkscape:connector-curvature="0" />
      <path
         style="fill:#28833e;stroke-width:0.28222221"
         d="m 97.306196,163.17556 c -3.409182,-0.29396 -11.935713,-1.93614 -11.631639,-2.24021 0.06528,-0.0653 0.931096,0.0696 1.92405,0.29965 5.96872,1.38306 6.015758,1.38526 31.953993,1.49284 26.43373,0.10963 26.71716,0.0969 31.07793,-1.39439 6.81761,-2.33149 12.94286,-7.59762 16.15837,-13.89201 0.8942,-1.75041 2.6143,-6.47515 2.65781,-7.30044 0.0225,-0.42802 0.071,-0.47706 0.15589,-0.15782 0.24217,0.91079 -1.07086,5.23032 -2.43285,8.00349 -3.76901,7.67411 -10.76656,13.13732 -19.00436,14.83731 -2.44344,0.50424 -4.01134,0.53376 -26.16475,0.49265 -12.96106,-0.024 -24.073555,-0.0875 -24.694444,-0.14107 z m -59.407775,-0.3532 c 0,-0.16569 0.04499,-0.30125 0.09997,-0.30125 0.05498,0 7.26223,-1.71657 16.01611,-3.8146 8.753879,-2.09803 16.103504,-3.77964 16.332499,-3.73692 0.228992,0.0427 -1.295008,0.48774 -3.386667,0.98893 -6.072713,1.4551 -28.025516,6.84313 -28.568019,7.01165 -0.271639,0.0844 -0.493889,0.0179 -0.493889,-0.14781 z m 46.79597,-2.18737 c 0.203728,-0.0815 0.447144,-0.0715 0.540927,0.0223 0.09378,0.0938 -0.07291,0.16048 -0.370417,0.14823 -0.328774,-0.0135 -0.395647,-0.0804 -0.17051,-0.17051 z m 26.087919,-24.91723 c -9.97303,-9.80937 -18.13278,-17.89251 -18.13278,-17.96253 0,-0.19314 0.853696,0.3022 3.208739,1.86177 6.913191,4.57811 20.023111,9.31967 25.767901,9.31967 5.33952,0 12.57782,-3.75794 14.91285,-7.74237 0.89337,-1.52443 1.83051,-5.16924 1.83051,-7.11944 0,-0.82889 0.0975,-1.50708 0.21666,-1.50708 0.2935,0 21.51445,21.26379 21.51445,21.55789 0,0.69902 -0.99678,3.90335 -1.68941,5.43091 -2.89445,6.38356 -8.7645,11.29978 -15.66726,13.12145 -1.81977,0.48025 -3.38018,0.62292 -8.04333,0.7354 l -5.78556,0.13955 z m 58.93616,2.93206 c 0.0136,-0.32877 0.0804,-0.39565 0.17051,-0.17051 0.0815,0.20373 0.0715,0.44715 -0.0223,0.54093 -0.0938,0.0938 -0.16048,-0.0729 -0.14823,-0.37042 z m -59.9945,-27.05021 c -6.33911,-2.05502 -13.904258,-7.54998 -19.025815,-13.819452 -1.952823,-2.390515 -4.487861,-6.215202 -4.71236,-7.109674 -0.262159,-1.04453 0.0991,-1.68761 2.439373,-4.342333 2.650058,-3.006129 3.505429,-4.518914 3.257124,-5.76044 -0.09597,-0.47984 -1.381534,-3.780849 -2.856817,-7.335579 -1.475283,-3.55473 -2.614117,-6.531362 -2.53074,-6.614736 0.08337,-0.08337 2.899864,2.696605 6.258864,6.177732 3.359001,3.481129 11.644471,11.861734 18.412161,18.623566 12.17893,12.168406 12.29154,12.291406 11.00204,12.016996 -2.11276,-0.44961 -2.61879,-0.0384 -7.01475,5.70017 -1.42412,1.85908 -2.77719,2.89533 -3.71951,2.8486 -0.20937,-0.0104 -0.88868,-0.18356 -1.50957,-0.38485 z"
         id="path228"
         inkscape:connector-curvature="0" />
      <path
         style="fill:#277849;stroke-width:0.28222221"
         d="m 97.306196,163.17556 c -3.409182,-0.29396 -11.935713,-1.93614 -11.631639,-2.24021 0.06528,-0.0653 0.931096,0.0696 1.92405,0.29965 5.96872,1.38306 6.015758,1.38526 31.953993,1.49284 26.43373,0.10963 26.71716,0.0969 31.07793,-1.39439 6.81761,-2.33149 12.94286,-7.59762 16.15837,-13.89201 0.8942,-1.75041 2.6143,-6.47515 2.65781,-7.30044 0.0225,-0.42802 0.071,-0.47706 0.15589,-0.15782 0.24217,0.91079 -1.07086,5.23032 -2.43285,8.00349 -3.76901,7.67411 -10.76656,13.13732 -19.00436,14.83731 -2.44344,0.50424 -4.01134,0.53376 -26.16475,0.49265 -12.96106,-0.024 -24.073555,-0.0875 -24.694444,-0.14107 z m -59.407775,-0.3532 c 0,-0.16569 0.04499,-0.30125 0.09997,-0.30125 0.05498,0 7.26223,-1.71657 16.01611,-3.8146 8.753879,-2.09803 16.103504,-3.77964 16.332499,-3.73692 0.228992,0.0427 -1.295008,0.48774 -3.386667,0.98893 -6.072713,1.4551 -28.025516,6.84313 -28.568019,7.01165 -0.271639,0.0844 -0.493889,0.0179 -0.493889,-0.14781 z m 46.79597,-2.18737 c 0.203728,-0.0815 0.447144,-0.0715 0.540927,0.0223 0.09378,0.0938 -0.07291,0.16048 -0.370417,0.14823 -0.328774,-0.0135 -0.395647,-0.0804 -0.17051,-0.17051 z m 85.024079,-21.98517 c 0.0136,-0.32877 0.0804,-0.39565 0.17051,-0.17051 0.0815,0.20373 0.0715,0.44715 -0.0223,0.54093 -0.0938,0.0938 -0.16048,-0.0729 -0.14823,-0.37042 z m -51.52783,-33.98426 c 0.28095,-0.31044 0.57432,-0.56444 0.65193,-0.56444 0.0776,0 -0.0888,0.254 -0.36971,0.56444 -0.28095,0.31045 -0.57432,0.56445 -0.65193,0.56445 -0.0776,0 0.0888,-0.254 0.36971,-0.56445 z m -24.448222,-3.31611 c -0.351048,-0.44762 -0.341065,-0.4576 0.106556,-0.10656 0.271639,0.21304 0.493889,0.43529 0.493889,0.49389 0,0.23228 -0.231758,0.0828 -0.600445,-0.38733 z m -2.995066,-3.527777 c -2.09651,-2.590061 -2.997606,-3.881952 -2.70315,-3.875484 0.126986,0.0028 0.639451,0.606038 1.138809,1.340556 0.499361,0.734517 1.483414,2.065733 2.186782,2.958261 0.703368,0.892528 1.22371,1.622778 1.156312,1.622778 -0.0674,0 -0.867836,-0.92075 -1.778753,-2.046111 z m -3.352444,-4.515555 c -0.114362,-0.194028 -0.389255,-0.670278 -0.61087,-1.058334 -0.386859,-0.677395 -0.384031,-0.683028 0.07084,-0.141111 0.573239,0.682927 1.067379,1.552222 0.882345,1.552222 -0.07391,0 -0.227953,-0.15875 -0.342318,-0.352777 z m 1.303511,-7.373778 c 0,-0.0586 0.22225,-0.280853 0.493889,-0.493889 0.447621,-0.351048 0.457603,-0.341065 0.106555,0.106556 -0.368686,0.470112 -0.600444,0.619613 -0.600444,0.387333 z"
         id="path226"
         inkscape:connector-curvature="0" />
    </g>
  </g>
</svg>
